<?xml version="1.0" encoding="UTF-8"?>
<!-- Generator: visioncortex VTracer 0.6.3 -->
<svg version="1.1" xmlns="http://www.w3.org/2000/svg" width="1280" height="960">
<path d="M0 0 C0.33 0.99 0.66 1.98 1 3 C3.55 4.58 6.08 5.37 9 6 C9 6.99 9 7.98 9 9 C9.57 9.26 10.14 9.52 10.73 9.78 C13.21 11.11 15.13 12.65 17.25 14.5 C17.96 15.11 18.66 15.72 19.39 16.34 C21 18 21 18 21 20 C21.6 20.12 22.2 20.25 22.81 20.38 C25 21 25 21 28 23 C28 23.66 28 24.32 28 25 C29.08 25.06 29.08 25.06 30.19 25.12 C33.49 26.15 34.52 27.65 36.57 30.34 C38.13 32.15 39.74 33.41 41.68 34.81 C45.85 37.87 49.87 41.09 53.88 44.38 C59.3 48.81 64.75 53.2 70.28 57.51 C72 59 72 59 73 61 C76.69 64 80.39 66.56 85 67.81 C90.67 66.28 94.72 61.99 99.06 58.2 C103.87 54 103.87 54 106 54 C105.67 53.01 105.34 52.02 105 51 C107.52 48.1 107.52 48.1 109.81 47.62 C112.22 46.94 113.25 46.06 115.12 44.44 C118 42 118 42 120 42 C120 41.34 120 40.68 120 40 C121.34 38.78 121.34 38.78 123.22 37.43 C123.9 36.93 124.58 36.43 125.28 35.91 C126.02 35.38 126.75 34.86 127.5 34.31 C128.97 33.23 130.44 32.14 131.91 31.05 C132.98 30.26 132.98 30.26 134.06 29.46 C141.61 23.96 141.61 23.96 146 16 C148.12 14.19 148.12 14.19 150 13 C149.34 14.32 148.68 15.64 148 17 C150.76 15.73 152.89 14.37 155.12 12.31 C166.85 2.03 166.85 2.03 173 1 C181.67 1.75 190.18 4.2 198.56 6.44 C200.27 6.89 200.27 6.89 202.02 7.35 C206.4 8.5 210.77 9.65 215.12 10.88 C216.09 11.16 217.05 11.43 218.05 11.71 C218.89 11.96 219.74 12.2 220.61 12.45 C224.16 13.27 227.38 13.21 231 13 C230.67 13.66 230.34 14.32 230 15 C247.33 19.82 247.33 19.82 265 23 C265 23.66 265 24.32 265 25 C265.89 25.05 266.78 25.1 267.7 25.15 C268.87 25.22 270.04 25.3 271.25 25.38 C272.41 25.44 273.57 25.51 274.77 25.59 C277.79 25.97 279.36 26.62 282 28 C284.62 28.35 287.22 28.5 289.86 28.66 C290.92 28.83 290.92 28.83 292 29 C292.33 29.66 292.66 30.32 293 31 C295.64 31.88 295.64 31.88 298.87 32.59 C300.09 32.88 301.3 33.17 302.55 33.47 C303.83 33.77 305.12 34.07 306.44 34.38 C325.96 38.94 325.96 38.94 331 42 C332.26 44.13 332.26 44.13 333 46 C332.32 46.9 332.32 46.9 331.62 47.81 C330.37 49.51 329.17 51.24 328 53 C327.01 52.67 326.02 52.34 325 52 C325 52.99 325 53.98 325 55 C320.66 59 320.66 59 318 59 C317.67 58.67 317.34 58.34 317 58 C316.9 58.64 316.79 59.28 316.69 59.94 C316.35 60.96 316.35 60.96 316 62 C314.51 62.5 314.51 62.5 313 63 C312.67 63.66 312.34 64.32 312 65 C310.35 65 308.7 65 307 65 C307.33 65.99 307.66 66.98 308 68 C306.51 68.5 306.51 68.5 305 69 C304.67 68.67 304.34 68.34 304 68 C303.67 69.32 303.34 70.64 303 72 C302.34 72 301.68 72 301 72 C300.34 72.99 299.68 73.98 299 75 C294.43 79 294.43 79 292 79 C291.66 79.93 291.66 79.93 291.31 80.88 C289.62 83.62 287.97 83.93 285 85 C284.67 85.66 284.34 86.32 284 87 C283.01 87 282.02 87 281 87 C280.88 87.64 280.75 88.28 280.62 88.94 C280.32 89.96 280.32 89.96 280 91 C279.34 91.33 278.68 91.66 278 92 C277.24 92.82 276.47 93.65 275.69 94.5 C272.93 97.07 271.67 97.69 268 98 C268 98.66 268 99.32 268 100 C266.67 101.33 265.33 102.67 264 104 C263.01 103.67 262.02 103.34 261 103 C258.32 104.86 257.82 106.51 256.69 109.62 C256.35 111.78 256.35 111.78 257 114 C259.94 117.51 263.38 120.22 267 123 C267.89 123.73 268.79 124.46 269.71 125.21 C271.85 127.02 271.85 127.02 274 127.94 C276.85 129.45 278.72 131.72 281 134 C283.38 135.86 285.78 137.66 288.21 139.45 C288.8 139.96 289.39 140.47 290 141 C290 141.66 290 142.32 290 143 C290.74 143.25 291.49 143.5 292.25 143.75 C295.26 145.12 296.71 146.64 299 149 C300.07 149.7 301.14 150.4 302.25 151.12 C303.16 151.74 304.07 152.36 305 153 C305 153.66 305 154.32 305 155 C305.99 155 306.98 155 308 155 C308 155.66 308 156.32 308 157 C308.54 157.25 309.09 157.49 309.65 157.75 C312.52 159.28 315.02 161.12 317.62 163.06 C321.18 165.75 321.18 165.75 325 168 C325 168.66 325 169.32 325 170 C325.87 170.34 325.87 170.34 326.75 170.69 C330.56 172.91 332.62 175.86 334 180 C327.73 183.43 322.03 185.76 315 187 C313.33 187.32 311.66 187.66 310 188 C308.89 188.22 308.89 188.22 307.75 188.44 C307.17 188.62 306.6 188.81 306 189 C305.67 189.66 305.34 190.32 305 191 C301.76 191.32 298.55 191.38 295.3 191.46 C291.44 192.09 289.84 193.4 287 196 C284.39 196.99 281.7 197.16 278.94 197.5 C275.1 197.86 275.1 197.86 272 199 C271.09 198.98 270.18 198.96 269.25 198.94 C264.12 199.04 260.37 199.91 256.32 203.14 C253.41 206.72 253.4 208.49 253.45 213.06 C253.45 213.75 253.45 214.44 253.45 215.16 C253.46 217.44 253.5 219.72 253.55 222.01 C253.56 223.61 253.57 225.22 253.58 226.83 C253.6 231.06 253.65 235.3 253.71 239.54 C253.81 246.26 253.85 252.98 253.9 259.7 C253.92 261.32 253.93 262.94 253.95 264.57 C254.04 274.19 253.98 283.77 253.34 293.38 C252.96 298.95 253.07 304.38 253.5 309.94 C253.62 311.59 253.73 313.25 253.84 314.9 C253.9 315.6 253.95 316.29 254.01 317.01 C254 319.16 253.53 320.92 253 323 C253.04 326.36 253.12 329.71 253.3 333.07 C253.39 336.6 253.12 338.79 251.38 341.89 C248.53 344.42 246.46 345.05 242.75 345.81 C241.67 346.05 240.59 346.28 239.48 346.52 C238.66 346.68 237.84 346.84 237 347 C237 347.33 237 347.66 237 348 C235.97 347.96 234.94 347.92 233.88 347.88 C228.72 348.04 225.28 349.15 221 352 C218.76 352.22 216.5 352.36 214.25 352.44 C208.76 352.74 204.81 353.37 200 356 C200 356.33 200 356.66 200 357 C199.45 357.11 198.91 357.22 198.35 357.33 C193.38 358.38 188.7 359.72 183.95 361.51 C182 362 182 362 179 361 C175.85 361.88 175.85 361.88 173 363 C173 363.33 173 363.66 173 364 C172.29 364.05 171.58 364.1 170.85 364.15 C169.47 364.26 169.47 364.26 168.06 364.38 C167.15 364.44 166.23 364.51 165.29 364.59 C164.53 364.72 163.78 364.86 163 365 C162.67 365.66 162.34 366.32 162 367 C158.6 367.51 155.23 367.84 151.81 368.12 C149.86 368.32 147.93 368.65 146 369 C145.34 369.99 144.68 370.98 144 372 C140.01 373.49 135.58 373.36 131.36 373.62 C130.58 373.75 129.8 373.87 129 374 C128.67 374.66 128.34 375.32 128 376 C125.23 376.6 125.23 376.6 121.75 377.06 C115.35 377.94 109.14 378.95 103 381 C101.11 381.22 99.21 381.41 97.31 381.56 C95.82 381.69 95.82 381.69 94.3 381.82 C93.54 381.88 92.78 381.94 92 382 C92 382.66 92 383.32 92 384 C89.79 384.03 87.58 384.05 85.38 384.06 C83.53 384.08 83.53 384.08 81.65 384.1 C73.66 383.88 73.66 383.88 70.12 382 C67.89 380.95 66.26 380.74 63.81 380.5 C62.55 380.34 61.3 380.17 60 380 C59.67 379.34 59.34 378.68 59 378 C56.63 377.62 54.32 377.34 51.94 377.12 C42.4 376.11 33.11 374.04 24 371 C23.13 370.86 22.27 370.71 21.38 370.56 C20.59 370.38 19.81 370.19 19 370 C18.67 369.34 18.34 368.68 18 368 C16.01 367.64 16.01 367.64 13.62 367.56 C8.69 367.17 4.23 366.08 -0.51 364.7 C-3.32 363.91 -6.12 363.44 -9 363 C-9.66 362.67 -10.32 362.34 -11 362 C-12.54 361.62 -14.08 361.27 -15.62 360.94 C-16.44 360.76 -17.26 360.58 -18.1 360.4 C-18.73 360.27 -19.35 360.14 -20 360 C-20 359.67 -20 359.34 -20 359 C-20.71 358.88 -21.42 358.76 -22.15 358.63 C-23.07 358.47 -23.99 358.3 -24.94 358.12 C-25.85 357.96 -26.77 357.8 -27.71 357.63 C-28.47 357.42 -29.22 357.22 -30 357 C-30.33 356.34 -30.66 355.68 -31 355 C-33.32 354.57 -33.32 354.57 -36 354.44 C-40.9 354.1 -40.9 354.1 -42 353 C-45.74 352.14 -49.53 351.56 -53.31 350.94 C-54.38 350.76 -55.45 350.58 -56.55 350.4 C-57.36 350.27 -58.17 350.14 -59 350 C-59 349.67 -59 349.34 -59 349 C-59.89 348.88 -60.78 348.76 -61.7 348.63 C-62.87 348.47 -64.04 348.3 -65.25 348.12 C-66.99 347.88 -66.99 347.88 -68.77 347.63 C-71.62 347.07 -73.52 346.44 -76 345 C-76.87 344.57 -77.73 344.13 -78.62 343.69 C-81.51 341.64 -81.94 340.33 -83 337 C-83.26 334.47 -83.26 334.47 -83.27 331.75 C-83.28 330.71 -83.29 329.68 -83.3 328.61 C-83.3 327.48 -83.3 326.35 -83.3 325.19 C-83.31 324 -83.32 322.8 -83.33 321.57 C-83.35 318.3 -83.36 315.02 -83.37 311.75 C-83.38 308.32 -83.41 304.88 -83.43 301.45 C-83.47 294.94 -83.5 288.43 -83.53 281.92 C-83.58 270.28 -83.65 258.64 -83.72 247 C-83.74 243.59 -83.76 240.18 -83.77 236.76 C-83.78 232.95 -83.81 229.14 -83.83 225.33 C-83.83 224.21 -83.83 223.09 -83.83 221.93 C-83.87 215.88 -84.21 210.01 -85 204 C-89.02 202.19 -92.61 200.66 -97 200 C-95.68 199.67 -94.36 199.34 -93 199 C-93.33 198.67 -93.66 198.34 -94 198 C-95.09 198.21 -96.19 198.41 -97.31 198.62 C-105.2 199.77 -114.04 196.59 -121 193 C-124.11 191.44 -127.52 191.39 -130.94 191 C-138.6 190.13 -138.6 190.13 -142 189 C-143.45 188.62 -144.89 188.24 -146.34 187.88 C-147.18 187.67 -148.01 187.45 -148.87 187.23 C-150.62 186.79 -152.38 186.34 -154.13 185.9 C-154.96 185.69 -155.8 185.48 -156.66 185.25 C-157.42 185.06 -158.18 184.87 -158.96 184.67 C-161 184 -161 184 -164 182 C-163.59 177.2 -161.53 174.98 -158 172 C-154.7 169.29 -151.36 166.64 -148 164 C-135.25 153.91 -135.25 153.91 -122.88 143.38 C-119.4 140.3 -115.78 137.47 -112.08 134.68 C-108.55 131.83 -105.7 128.75 -103.06 125.06 C-100.6 121.72 -98.02 118.84 -95 116 C-94.34 116.33 -93.68 116.66 -93 117 C-93.8 117.78 -94.61 118.57 -95.44 119.38 C-97.99 121.72 -97.99 121.72 -99 124 C-97.49 122.88 -96 121.76 -94.5 120.62 C-93.66 120 -92.83 119.37 -91.97 118.73 C-91.32 118.16 -90.67 117.59 -90 117 C-90 116.34 -90 115.68 -90 115 C-88.68 114.67 -87.36 114.34 -86 114 C-86.38 111.45 -86.72 110.26 -88.64 108.47 C-89.31 108.01 -89.99 107.54 -90.69 107.06 C-91.41 106.55 -92.12 106.04 -92.86 105.52 C-93.57 105.02 -94.27 104.52 -95 104 C-98.15 101.56 -100.76 99.35 -103 96 C-105.55 94.8 -105.55 94.8 -108 94 C-108 93.34 -108 92.68 -108 92 C-108.74 91.73 -109.49 91.46 -110.25 91.19 C-112.89 90.05 -114.86 88.91 -117 87 C-117 86.34 -117 85.68 -117 85 C-117.99 84.67 -118.98 84.34 -120 84 C-120.99 83.01 -120.99 83.01 -122 82 C-122.87 81.34 -123.73 80.68 -124.62 80 C-125.8 79.01 -125.8 79.01 -127 78 C-127 77.34 -127 76.68 -127 76 C-127.66 75.81 -128.32 75.63 -129 75.44 C-133.32 73.37 -136.48 70.21 -140 67 C-144.6 63.01 -149.44 59.48 -154.41 55.96 C-158.95 52.52 -162.41 48.39 -166 44 C-163.58 41.13 -161.48 40.36 -157.88 39.44 C-155.25 38.8 -155.25 38.8 -153 38 C-152.67 37.34 -152.34 36.68 -152 36 C-151.46 36.23 -150.93 36.45 -150.38 36.69 C-146.94 37.14 -144.94 35.67 -142 34 C-142 34.66 -142 35.32 -142 36 C-140.37 35.52 -138.75 35.04 -137.12 34.56 C-136.22 34.3 -135.32 34.03 -134.38 33.75 C-132.02 33.07 -132.02 33.07 -130 32 C-129.67 31.34 -129.34 30.68 -129 30 C-129 30.99 -129 31.98 -129 33 C-128.28 32.67 -127.56 32.34 -126.81 32 C-123.98 30.99 -121.97 30.83 -119 31 C-119 30.34 -119 29.68 -119 29 C-118.17 28.88 -117.34 28.76 -116.48 28.63 C-115.39 28.47 -114.31 28.3 -113.19 28.12 C-112.11 27.96 -111.03 27.8 -109.92 27.63 C-106.83 27.15 -106.83 27.15 -104 25 C-101.74 24.8 -101.74 24.8 -99.31 24.88 C-98.1 24.9 -98.1 24.9 -96.86 24.93 C-96.25 24.95 -95.63 24.98 -95 25 C-95 24.34 -95 23.68 -95 23 C-94.16 22.85 -93.32 22.71 -92.46 22.55 C-84.44 21.06 -76.6 19.17 -68.75 16.94 C-67.83 16.68 -66.92 16.42 -65.97 16.16 C-65.11 15.91 -64.25 15.66 -63.36 15.4 C-62.59 15.18 -61.82 14.96 -61.03 14.73 C-58.73 14 -58.73 14 -56 12 C-56 12.66 -56 13.32 -56 14 C-54.35 13.34 -52.7 12.68 -51 12 C-51 11.34 -51 10.68 -51 10 C-48.69 10 -46.38 10 -44 10 C-43.67 9.34 -43.34 8.68 -43 8 C-43 8.66 -43 9.32 -43 10 C-38.54 9.5 -38.54 9.5 -34 9 C-34 8.34 -34 7.68 -34 7 C-32.68 6.34 -31.36 5.68 -30 5 C-30 5.66 -30 6.32 -30 7 C-28.76 6.66 -27.51 6.32 -26.23 5.98 C-17.54 3.64 -8.91 1.34 0 0 Z M319 55 C319 55.66 319 56.32 319 57 C319.66 56.67 320.32 56.34 321 56 C320.34 55.67 319.68 55.34 319 55 Z M288 79 C289 83 289 83 289 83 Z M271 93 C271.33 93.66 271.66 94.32 272 95 C272.66 94.34 273.32 93.68 274 93 C273.01 93 272.02 93 271 93 Z M-149 185 C-145 186 -145 186 -145 186 Z M252 207 C253 209 253 209 253 209 Z M251 209 C251 217.25 251 225.5 251 234 C251.33 234 251.66 234 252 234 C252 225.75 252 217.5 252 209 C251.67 209 251.34 209 251 209 Z M250 238 C251 242 251 242 251 242 Z M250 243 C251 247 251 247 251 247 Z M251 247 C251 251.95 251 256.9 251 262 C251.33 262 251.66 262 252 262 C252 257.05 252 252.1 252 247 C251.67 247 251.34 247 251 247 Z M250 264 C251 267 251 267 251 267 Z M252 270 C253 274 253 274 253 274 Z M251 276 C251 280.95 251 285.9 251 291 C251.33 291 251.66 291 252 291 C252 286.05 252 281.1 252 276 C251.67 276 251.34 276 251 276 Z M-20 292 C-19.67 292.66 -19.34 293.32 -19 294 C-18.34 293.67 -17.68 293.34 -17 293 C-17.99 292.67 -18.98 292.34 -20 292 Z M-25 294 C-24.67 295.65 -24.34 297.3 -24 299 C-23.67 298.34 -23.34 297.68 -23 297 C-23.66 296.01 -24.32 295.02 -25 294 Z M-22 296 C-21.45 299.95 -20.61 303.35 -19 307 C-18.34 307 -17.68 307 -17 307 C-17 307.66 -17 308.32 -17 309 C-11.35 313.38 -5.28 316.74 2 316 C5.53 314.55 8.71 313.13 11 310 C11.77 307.2 12 304.91 12 302 C5.73 300.02 -0.54 298.04 -7 296 C-7 295.34 -7 294.68 -7 294 C-12.53 293.81 -16.76 294.25 -22 296 Z M2 297 C6 298 6 298 6 298 Z M251 299 C251 302.96 251 306.92 251 311 C251.33 311 251.66 311 252 311 C252 307.04 252 303.08 252 299 C251.67 299 251.34 299 251 299 Z M252 317 C253 319 253 319 253 319 Z M231 344 C231.33 344.66 231.66 345.32 232 346 C232.33 345.34 232.66 344.68 233 344 C232.34 344 231.68 344 231 344 Z M-71 345 C-71 345.33 -71 345.66 -71 346 C-68.69 346 -66.38 346 -64 346 C-64 345.67 -64 345.34 -64 345 C-66.31 345 -68.62 345 -71 345 Z M-53 349 C-53 349.33 -53 349.66 -53 350 C-51.35 350 -49.7 350 -48 350 C-48 349.67 -48 349.34 -48 349 C-49.65 349 -51.3 349 -53 349 Z M4 364 C4 364.33 4 364.66 4 365 C5.65 365 7.3 365 9 365 C9 364.67 9 364.34 9 364 C7.35 364 5.7 364 4 364 Z M45 374 C49 375 49 375 49 375 Z " fill="#2477BD" transform="translate(555,262)"/>
<path d="M0 0 C0.33 0.99 0.66 1.98 1 3 C3.55 4.58 6.08 5.37 9 6 C9 6.99 9 7.98 9 9 C9.57 9.26 10.14 9.52 10.73 9.78 C13.21 11.11 15.13 12.65 17.25 14.5 C17.96 15.11 18.66 15.72 19.39 16.34 C21 18 21 18 21 20 C21.6 20.12 22.2 20.25 22.81 20.38 C25 21 25 21 28 23 C28 23.66 28 24.32 28 25 C29.08 25.06 29.08 25.06 30.19 25.12 C33.49 26.15 34.52 27.65 36.57 30.34 C38.13 32.15 39.74 33.41 41.68 34.81 C45.85 37.87 49.87 41.09 53.88 44.38 C59.3 48.81 64.75 53.2 70.28 57.51 C72 59 72 59 73 61 C75.31 62.6 77.68 64.07 80.07 65.56 C80.7 66.04 81.34 66.51 82 67 C82 67.66 82 68.32 82 69 C81.34 69 80.68 69 80 69 C79.67 69.99 79.34 70.98 79 72 C76.23 72.75 73.57 73.33 70.75 73.81 C63.95 75 57.38 76.71 50.76 78.64 C41.97 81.21 33.13 83.56 24.26 85.8 C23.61 85.97 22.96 86.13 22.29 86.3 C18.25 87.33 14.2 88.35 10.16 89.36 C4.8 90.71 -0.56 92.07 -5.93 93.42 C-7.26 93.76 -8.59 94.1 -9.92 94.43 C-21.54 97.36 -33.14 100.35 -44.73 103.35 C-68.44 109.5 -68.44 109.5 -78 111 C-78 111.66 -78 112.32 -78 113 C-77.01 113.21 -76.03 113.42 -75.01 113.63 C-62.29 116.36 -49.72 119.62 -37.14 122.92 C-29.89 124.82 -22.63 126.67 -15.38 128.53 C-12.88 129.17 -10.39 129.81 -7.9 130.45 C0.16 132.51 8.22 134.56 16.29 136.57 C22.81 138.2 29.31 139.87 35.81 141.56 C37.5 142 37.5 142 39.22 142.44 C45.39 144.04 51.55 145.69 57.69 147.41 C60.76 148.19 63.86 148.57 67 149 C69.01 149.63 71.01 150.3 73 151 C73.83 151.23 74.67 151.46 75.53 151.69 C76.43 151.94 77.32 152.18 78.25 152.44 C79.1 152.66 79.95 152.89 80.83 153.12 C83 154 83 154 85 157 C84.03 157.33 83.06 157.66 82.06 158 C77.74 159.84 74.75 162.76 71.35 165.94 C68.38 168.54 65.2 170.61 61.85 172.68 C59.72 174.03 59.72 174.03 58 177 C57.01 177.33 56.02 177.66 55 178 C53.32 179.66 51.66 181.33 50 183 C47.35 185.15 44.58 187.15 41.82 189.16 C38.96 191.3 36.57 193.39 34.34 196.19 C32.18 198.78 31.11 199.77 28.12 201.06 C22.46 203.95 18 208.14 13.32 212.37 C10.01 215.33 6.83 217.73 3 220 C2.34 220.99 1.68 221.98 1 223 C-6.23 224.42 -13.8 222.15 -20.75 220.31 C-21.8 220.04 -22.86 219.77 -23.95 219.49 C-30.8 217.7 -37.37 215.54 -43.99 213.02 C-47.9 211.7 -51.77 211.16 -55.85 210.59 C-64.28 209.01 -72.38 205.88 -80 202 C-80 202.63 -80 203.25 -80 203.9 C-79.98 219.19 -79.96 234.48 -79.95 249.78 C-79.94 257.17 -79.94 264.57 -79.92 271.97 C-79.91 278.42 -79.91 284.87 -79.91 291.32 C-79.9 294.73 -79.9 298.14 -79.89 301.56 C-79.89 305.38 -79.89 309.2 -79.89 313.03 C-79.88 314.14 -79.88 315.25 -79.88 316.39 C-79.89 324.29 -80.35 332.12 -81 340 C-83.18 336.73 -83.25 335.78 -83.27 331.99 C-83.28 330.96 -83.29 329.92 -83.3 328.86 C-83.3 327.72 -83.3 326.59 -83.3 325.42 C-83.31 324.22 -83.32 323.03 -83.33 321.8 C-83.35 318.52 -83.36 315.23 -83.37 311.95 C-83.38 308.51 -83.41 305.07 -83.43 301.64 C-83.47 295.11 -83.5 288.59 -83.53 282.07 C-83.58 270.41 -83.65 258.74 -83.72 247.08 C-83.74 243.66 -83.76 240.24 -83.77 236.82 C-83.78 233 -83.81 229.18 -83.83 225.36 C-83.83 224.23 -83.83 223.11 -83.83 221.96 C-83.87 215.89 -84.21 210.01 -85 204 C-89.02 202.19 -92.61 200.66 -97 200 C-95.68 199.67 -94.36 199.34 -93 199 C-93.33 198.67 -93.66 198.34 -94 198 C-95.09 198.21 -96.19 198.41 -97.31 198.62 C-105.2 199.77 -114.04 196.59 -121 193 C-124.11 191.44 -127.52 191.39 -130.94 191 C-138.6 190.13 -138.6 190.13 -142 189 C-143.45 188.62 -144.89 188.24 -146.34 187.88 C-147.18 187.67 -148.01 187.45 -148.87 187.23 C-150.62 186.79 -152.38 186.34 -154.13 185.9 C-154.96 185.69 -155.8 185.48 -156.66 185.25 C-157.42 185.06 -158.18 184.87 -158.96 184.67 C-161 184 -161 184 -164 182 C-163.59 177.2 -161.53 174.98 -158 172 C-154.7 169.29 -151.36 166.64 -148 164 C-135.25 153.91 -135.25 153.91 -122.88 143.38 C-119.4 140.3 -115.78 137.47 -112.08 134.68 C-108.55 131.83 -105.7 128.75 -103.06 125.06 C-100.6 121.72 -98.02 118.84 -95 116 C-94.34 116.33 -93.68 116.66 -93 117 C-93.8 117.78 -94.61 118.57 -95.44 119.38 C-97.99 121.72 -97.99 121.72 -99 124 C-97.49 122.88 -96 121.76 -94.5 120.62 C-93.66 120 -92.83 119.37 -91.97 118.73 C-91.32 118.16 -90.67 117.59 -90 117 C-90 116.34 -90 115.68 -90 115 C-88.68 114.67 -87.36 114.34 -86 114 C-86.38 111.45 -86.72 110.26 -88.64 108.47 C-89.31 108.01 -89.99 107.54 -90.69 107.06 C-91.41 106.55 -92.12 106.04 -92.86 105.52 C-93.57 105.02 -94.27 104.52 -95 104 C-98.15 101.56 -100.76 99.35 -103 96 C-105.55 94.8 -105.55 94.8 -108 94 C-108 93.34 -108 92.68 -108 92 C-108.74 91.73 -109.49 91.46 -110.25 91.19 C-112.89 90.05 -114.86 88.91 -117 87 C-117 86.34 -117 85.68 -117 85 C-117.99 84.67 -118.98 84.34 -120 84 C-120.99 83.01 -120.99 83.01 -122 82 C-122.87 81.34 -123.73 80.68 -124.62 80 C-125.8 79.01 -125.8 79.01 -127 78 C-127 77.34 -127 76.68 -127 76 C-127.66 75.81 -128.32 75.63 -129 75.44 C-133.32 73.37 -136.48 70.21 -140 67 C-144.6 63.01 -149.44 59.48 -154.41 55.96 C-158.95 52.52 -162.41 48.39 -166 44 C-163.58 41.13 -161.48 40.36 -157.88 39.44 C-155.25 38.8 -155.25 38.8 -153 38 C-152.67 37.34 -152.34 36.68 -152 36 C-151.46 36.23 -150.93 36.45 -150.38 36.69 C-146.94 37.14 -144.94 35.67 -142 34 C-142 34.66 -142 35.32 -142 36 C-140.37 35.52 -138.75 35.04 -137.12 34.56 C-136.22 34.3 -135.32 34.03 -134.38 33.75 C-132.02 33.07 -132.02 33.07 -130 32 C-129.67 31.34 -129.34 30.68 -129 30 C-129 30.99 -129 31.98 -129 33 C-128.28 32.67 -127.56 32.34 -126.81 32 C-123.98 30.99 -121.97 30.83 -119 31 C-119 30.34 -119 29.68 -119 29 C-118.17 28.88 -117.34 28.76 -116.48 28.63 C-115.39 28.47 -114.31 28.3 -113.19 28.12 C-112.11 27.96 -111.03 27.8 -109.92 27.63 C-106.83 27.15 -106.83 27.15 -104 25 C-101.74 24.8 -101.74 24.8 -99.31 24.88 C-98.1 24.9 -98.1 24.9 -96.86 24.93 C-96.25 24.95 -95.63 24.98 -95 25 C-95 24.34 -95 23.68 -95 23 C-94.16 22.85 -93.32 22.71 -92.46 22.55 C-84.44 21.06 -76.6 19.17 -68.75 16.94 C-67.83 16.68 -66.92 16.42 -65.97 16.16 C-65.11 15.91 -64.25 15.66 -63.36 15.4 C-62.59 15.18 -61.82 14.96 -61.03 14.73 C-58.73 14 -58.73 14 -56 12 C-56 12.66 -56 13.32 -56 14 C-54.35 13.34 -52.7 12.68 -51 12 C-51 11.34 -51 10.68 -51 10 C-48.69 10 -46.38 10 -44 10 C-43.67 9.34 -43.34 8.68 -43 8 C-43 8.66 -43 9.32 -43 10 C-38.54 9.5 -38.54 9.5 -34 9 C-34 8.34 -34 7.68 -34 7 C-32.68 6.34 -31.36 5.68 -30 5 C-30 5.66 -30 6.32 -30 7 C-28.76 6.66 -27.51 6.32 -26.23 5.98 C-17.54 3.64 -8.91 1.34 0 0 Z M-149 185 C-145 186 -145 186 -145 186 Z " fill="#80BFE7" transform="translate(555,262)"/>
<path d="M0 0 C15.8 1.19 30.92 5.56 46.11 9.88 C47.07 10.16 48.04 10.43 49.03 10.71 C50.3 11.08 50.3 11.08 51.6 11.45 C55.15 12.26 58.37 12.21 62 12 C61.67 12.66 61.34 13.32 61 14 C78.33 18.82 78.33 18.82 96 22 C96 22.66 96 23.32 96 24 C96.89 24.05 97.78 24.1 98.7 24.15 C99.87 24.22 101.04 24.3 102.25 24.38 C103.41 24.44 104.57 24.51 105.77 24.59 C108.79 24.97 110.36 25.62 113 27 C115.62 27.35 118.22 27.5 120.86 27.66 C121.92 27.83 121.92 27.83 123 28 C123.33 28.66 123.66 29.32 124 30 C126.64 30.88 126.64 30.88 129.87 31.59 C131.09 31.88 132.3 32.17 133.55 32.47 C134.83 32.77 136.12 33.07 137.44 33.38 C156.96 37.94 156.96 37.94 162 41 C163.26 43.13 163.26 43.13 164 45 C163.55 45.6 163.09 46.2 162.62 46.81 C161.37 48.51 160.17 50.24 159 52 C158.01 51.67 157.02 51.34 156 51 C156 51.99 156 52.98 156 54 C151.66 58 151.66 58 149 58 C148.67 57.67 148.34 57.34 148 57 C147.85 57.96 147.85 57.96 147.69 58.94 C147.35 59.96 147.35 59.96 147 61 C146.01 61.33 145.02 61.66 144 62 C143.67 62.66 143.34 63.32 143 64 C141.35 64 139.7 64 138 64 C138.33 64.99 138.66 65.98 139 67 C138.01 67.33 137.02 67.66 136 68 C135.67 67.67 135.34 67.34 135 67 C134.67 68.32 134.34 69.64 134 71 C133.34 71 132.68 71 132 71 C131.34 71.99 130.68 72.98 130 74 C125.43 78 125.43 78 123 78 C122.66 78.93 122.66 78.93 122.31 79.88 C120.62 82.62 118.97 82.93 116 84 C115.67 84.66 115.34 85.32 115 86 C114.01 86 113.02 86 112 86 C111.81 86.96 111.81 86.96 111.62 87.94 C111.42 88.62 111.21 89.3 111 90 C110.01 90.5 110.01 90.5 109 91 C108.24 91.82 107.47 92.65 106.69 93.5 C103.93 96.07 102.67 96.69 99 97 C99 97.66 99 98.32 99 99 C97.67 100.33 96.33 101.67 95 103 C94.01 102.67 93.02 102.34 92 102 C89.32 103.86 88.82 105.51 87.69 108.62 C87.35 110.78 87.35 110.78 88 113 C90.94 116.51 94.38 119.22 98 122 C98.89 122.73 99.79 123.46 100.71 124.21 C102.85 126.02 102.85 126.02 105 126.94 C107.85 128.45 109.72 130.72 112 133 C114.38 134.86 116.78 136.66 119.21 138.45 C119.8 138.96 120.39 139.47 121 140 C121 140.66 121 141.32 121 142 C121.74 142.25 122.49 142.5 123.25 142.75 C126.26 144.12 127.71 145.64 130 148 C131.07 148.7 132.14 149.4 133.25 150.12 C134.61 151.05 134.61 151.05 136 152 C136 152.66 136 153.32 136 154 C136.99 154 137.98 154 139 154 C139 154.66 139 155.32 139 156 C139.54 156.25 140.09 156.49 140.65 156.75 C143.52 158.28 146.02 160.12 148.62 162.06 C152.18 164.75 152.18 164.75 156 167 C156 167.66 156 168.32 156 169 C156.58 169.23 157.15 169.45 157.75 169.69 C161.56 171.91 163.62 174.86 165 179 C158.73 182.43 153.03 184.76 146 186 C144.33 186.32 142.66 186.66 141 187 C139.89 187.22 139.89 187.22 138.75 187.44 C138.17 187.62 137.6 187.81 137 188 C136.67 188.66 136.34 189.32 136 190 C132.76 190.32 129.55 190.38 126.3 190.46 C122.44 191.09 120.84 192.4 118 195 C115.39 195.99 112.7 196.16 109.94 196.5 C106.1 196.86 106.1 196.86 103 198 C102.09 197.98 101.18 197.96 100.25 197.94 C93.17 198.07 89.03 200.34 84 205 C84 204.34 84 203.68 84 203 C83.24 203.35 82.47 203.7 81.69 204.06 C79 205 79 205 76 204 C75.67 204.33 75.34 204.66 75 205 C72.84 205.35 70.67 205.66 68.5 205.94 C62.91 206.7 57.48 207.68 52 209 C52 209.66 52 210.32 52 211 C47.97 212.09 43.93 213.17 39.9 214.25 C38.53 214.62 37.16 214.99 35.8 215.36 C5.81 223.44 5.81 223.44 -2 222 C-4.94 219.69 -4.94 219.69 -7 217 C-7.76 216.44 -8.53 215.89 -9.31 215.31 C-9.87 214.88 -10.43 214.45 -11 214 C-11 213.34 -11 212.68 -11 212 C-12.08 211.63 -12.08 211.63 -13.19 211.25 C-16.28 209.88 -18.51 208.28 -21 206 C-21 205.34 -21 204.68 -21 204 C-21.99 203.67 -22.98 203.34 -24 203 C-24 202.34 -24 201.68 -24 201 C-24.72 200.77 -25.44 200.55 -26.19 200.31 C-29.53 198.75 -31.44 196.63 -34 194 C-34.99 193.67 -35.98 193.34 -37 193 C-37 192.34 -37 191.68 -37 191 C-37.67 190.79 -38.35 190.59 -39.04 190.38 C-43.04 188.52 -46.01 185.88 -49.31 183 C-49.96 182.45 -50.6 181.91 -51.27 181.34 C-52.89 179.94 -54.45 178.48 -56 177 C-56 176.34 -56 175.68 -56 175 C-56.57 174.73 -57.14 174.46 -57.73 174.18 C-60.91 172.53 -63.8 170.52 -66.76 168.51 C-68.55 167.3 -70.36 166.14 -72.19 165 C-75.59 162.58 -78.22 160.11 -81 157 C-81 156.01 -81 155.02 -81 154 C-69.71 148.46 -57.67 146.07 -45.41 143.71 C-41.75 142.95 -38.25 141.94 -34.68 140.81 C-31.36 139.81 -28 138.96 -24.62 138.12 C-23.95 137.96 -23.28 137.79 -22.59 137.62 C-20.39 137.08 -18.2 136.54 -16 136 C-2.6 132.74 -2.6 132.74 10.69 129.06 C18.33 126.81 26.09 125.04 33.86 123.28 C39.91 121.88 45.63 120.12 51.43 117.92 C55.15 116.59 58.9 115.67 62.75 114.81 C63.45 114.65 64.16 114.48 64.88 114.31 C69.24 113.32 73.57 112.57 78 112 C73.76 107.96 70.06 107.03 64.5 106 C59 104.89 53.66 103.68 48.31 101.94 C44.06 100.57 39.89 99.52 35.5 98.69 C18.7 95.5 2.02 91.26 -14.45 86.63 C-17.05 85.88 -17.05 85.88 -20 86 C-24 85.16 -27.95 84.16 -31.91 83.17 C-33.86 82.69 -35.81 82.22 -37.75 81.75 C-39.6 81.29 -39.6 81.29 -41.49 80.82 C-42.62 80.55 -43.75 80.27 -44.91 79.98 C-47.98 79.01 -50.26 77.67 -53 76 C-55.42 75.19 -55.42 75.19 -57.94 74.68 C-59.31 74.37 -59.31 74.37 -60.71 74.06 C-61.65 73.85 -62.59 73.65 -63.56 73.44 C-65.44 73.02 -67.32 72.61 -69.19 72.18 C-70.02 72 -70.85 71.82 -71.7 71.64 C-73.99 71 -75.89 70.1 -78 69 C-80.66 68.48 -83.29 68.27 -86 68 C-86 67.67 -86 67.34 -86 67 C-84.58 66.78 -84.58 66.78 -83.12 66.56 C-78.17 65.19 -74.97 61.67 -71.33 58.19 C-65.81 53 -65.81 53 -63 53 C-63.33 52.01 -63.66 51.02 -64 50 C-61.48 47.1 -61.48 47.1 -59.19 46.62 C-56.78 45.94 -55.75 45.06 -53.88 43.44 C-51 41 -51 41 -49 41 C-49 40.34 -49 39.68 -49 39 C-47.66 37.78 -47.66 37.78 -45.78 36.43 C-45.1 35.93 -44.42 35.43 -43.72 34.91 C-42.98 34.38 -42.25 33.86 -41.5 33.31 C-40.03 32.23 -38.56 31.14 -37.09 30.05 C-36.02 29.26 -36.02 29.26 -34.94 28.46 C-27.39 22.96 -27.39 22.96 -23 15 C-20.88 13.19 -20.88 13.19 -19 12 C-19.66 13.32 -20.32 14.64 -21 16 C-18.24 14.73 -16.11 13.37 -13.88 11.31 C-10.13 8 -6.09 5.22 -1.94 2.42 C-1.3 1.95 -0.66 1.48 0 1 C0 0.67 0 0.34 0 0 Z M150 54 C150 54.66 150 55.32 150 56 C150.66 55.67 151.32 55.34 152 55 C151.34 54.67 150.68 54.34 150 54 Z M119 78 C120 82 120 82 120 82 Z M102 92 C102.33 92.66 102.66 93.32 103 94 C103.66 93.34 104.32 92.68 105 92 C104.01 92 103.02 92 102 92 Z " fill="#539BD2" transform="translate(724,263)"/>
<path d="M0 0 C0.74 0.1 1.47 0.2 2.23 0.3 C2.96 0.39 3.69 0.47 4.44 0.56 C6.98 1.18 6.98 1.18 10.11 2.57 C15.69 5.07 21.73 6.07 27.69 7.37 C28.59 7.58 29.5 7.78 30.44 8 C31.27 8.18 32.09 8.36 32.94 8.54 C34.98 9.18 34.98 9.18 36.98 11.18 C39.03 11.83 41.11 12.39 43.2 12.91 C44.44 13.22 45.69 13.52 46.97 13.84 C47.94 14.08 47.94 14.08 48.93 14.32 C50.91 14.8 52.89 15.29 54.87 15.79 C61.35 17.53 61.35 17.53 67.98 18.18 C69.47 18.51 70.96 18.88 72.43 19.28 C73.33 19.52 74.23 19.76 75.16 20.01 C76.62 20.4 76.62 20.4 78.11 20.8 C86.75 23.1 95.41 25.29 104.11 27.37 C105.18 27.62 106.24 27.88 107.34 28.14 C112.42 29.35 117.51 30.53 122.61 31.68 C131.59 33.73 140.48 36.15 149.39 38.51 C151.76 39.12 154.14 39.68 156.53 40.23 C160.19 41.24 161.64 42.25 163.98 45.18 C162.5 46.66 161.02 46.64 158.97 47.01 C158.14 47.17 157.3 47.32 156.45 47.49 C155.1 47.74 155.1 47.74 153.73 47.99 C146.77 49.34 140.05 50.91 133.3 53.11 C122.78 56.49 112.07 59.22 101.3 61.66 C96.42 62.79 91.65 64.14 86.86 65.62 C79.01 68.03 71.05 69.77 63 71.39 C57.39 72.55 52.31 74.09 46.98 76.18 C45.02 76.74 43.04 77.26 41.05 77.74 C40.01 77.99 38.98 78.24 37.91 78.5 C35.52 79.05 33.13 79.59 30.73 80.12 C26.4 81.06 22.1 82.11 17.8 83.18 C17.12 83.35 16.44 83.51 15.74 83.68 C11.76 84.68 7.87 85.83 3.98 87.18 C7.79 94.79 14.57 98.66 21.69 102.81 C25.28 104.95 28.19 107.12 30.7 110.47 C33.38 113.65 36.3 115.96 39.61 118.43 C40.49 119.1 40.49 119.1 41.38 119.78 C44.55 122.19 44.55 122.19 47.98 124.18 C47.98 124.84 47.98 125.5 47.98 126.18 C48.87 126.34 48.87 126.34 49.77 126.5 C52.27 127.27 53.5 128.24 55.42 129.99 C57.55 131.91 59.64 133.68 61.92 135.43 C62.6 136.01 63.28 136.58 63.98 137.18 C63.98 137.84 63.98 138.5 63.98 139.18 C64.79 139.55 64.79 139.55 65.61 139.93 C68.57 141.49 71.28 143.21 73.98 145.18 C73.98 145.84 73.98 146.5 73.98 147.18 C74.54 147.43 75.1 147.67 75.67 147.93 C78.41 149.41 80.66 151.11 82.98 153.18 C82.98 153.84 82.98 154.5 82.98 155.18 C94.54 153.97 105.51 151.49 116.73 148.55 C119.17 147.92 121.61 147.29 124.04 146.67 C125.54 146.28 127.04 145.89 128.54 145.5 C131.44 144.75 133.97 144.18 136.98 144.18 C136.98 143.52 136.98 142.86 136.98 142.18 C144.8 139.43 151.66 137.5 159.98 138.18 C159.98 137.52 159.98 136.86 159.98 136.18 C160.54 136.37 161.1 136.55 161.67 136.74 C164.38 137.26 166.33 136.84 168.98 136.18 C170.08 144.14 170.13 152.02 170.12 160.05 C170.12 161.49 170.12 162.93 170.12 164.38 C170.12 167.4 170.12 170.42 170.11 173.44 C170.11 177.25 170.11 181.07 170.12 184.88 C170.15 212.06 170.15 212.06 169.3 225.37 C168.95 231 169.05 236.5 169.48 242.12 C169.6 243.77 169.72 245.43 169.83 247.08 C169.88 247.78 169.94 248.47 169.99 249.19 C169.98 251.35 169.52 253.1 168.98 255.18 C168.99 258.63 169.06 262.06 169.2 265.51 C169.24 267.62 169.24 267.62 168.98 271.18 C167.99 271.84 167 272.5 165.98 273.18 C164.48 270.18 164.89 267.39 164.92 264.05 C164.93 262.77 164.94 261.49 164.95 260.17 C164.97 258.69 164.97 258.69 164.98 257.18 C156.47 259.18 148.11 261.4 139.8 264.12 C132.82 266.38 125.81 268.33 118.67 270.05 C117.79 270.27 116.92 270.49 116.01 270.71 C111.63 271.74 107.52 272.64 102.98 272.18 C102.32 271.52 101.66 270.86 100.98 270.18 C101.17 267.24 101.36 265.02 103.15 262.62 C105.64 260.66 108.07 260 111.11 259.12 C112.27 258.78 113.44 258.44 114.64 258.09 C117.99 257.18 121.34 256.38 124.74 255.67 C130.64 254.38 136.47 252.74 142.17 250.74 C148.96 248.4 156.01 246.87 162.98 245.18 C162.98 242.54 162.98 239.9 162.98 237.18 C155.28 238.03 148.37 239.22 141.18 242.11 C136.14 243.8 130.94 244.73 125.71 245.7 C118.24 247.09 118.24 247.09 111.98 251.18 C109.99 251.35 109.99 251.35 107.55 251.37 C106.74 251.38 105.94 251.4 105.11 251.41 C102.98 251.18 102.98 251.18 100.98 249.18 C100.61 246.3 100.61 246.3 100.98 243.18 C103.93 239.41 106.34 238.58 110.98 237.8 C117.01 236.65 122.81 235.15 128.67 233.37 C129.51 233.11 130.35 232.86 131.22 232.59 C135.57 231.26 139.91 229.89 144.24 228.49 C145.09 228.22 145.94 227.95 146.81 227.67 C148.42 227.15 150.03 226.63 151.63 226.1 C156.09 224.65 160.32 223.7 164.98 223.18 C164.98 220.87 164.98 218.56 164.98 216.18 C160.38 214.77 156.79 215.76 152.32 217.09 C151.59 217.3 150.85 217.51 150.09 217.73 C147.69 218.41 145.31 219.11 142.92 219.8 C139.66 220.74 136.4 221.66 133.14 222.59 C131.95 222.93 131.95 222.93 130.73 223.28 C123.67 225.29 116.58 227.11 109.45 228.82 C105.62 229.71 105.62 229.71 101.98 231.18 C100.66 225.04 100.66 225.04 101.96 221.6 C104.77 218.24 107.89 217.63 111.98 216.68 C112.78 216.48 113.58 216.27 114.4 216.06 C116.93 215.42 119.45 214.8 121.98 214.18 C125.09 213.4 128.2 212.61 131.3 211.8 C132.07 211.61 132.83 211.41 133.63 211.21 C140.97 209.28 148.14 206.89 155.31 204.41 C156.57 203.98 156.57 203.98 157.86 203.54 C158.61 203.27 159.36 203.01 160.13 202.74 C161.98 202.18 161.98 202.18 163.98 202.18 C163.65 198.88 163.32 195.58 162.98 192.18 C159.21 193.26 155.44 194.34 151.67 195.43 C150.62 195.73 149.57 196.03 148.48 196.34 C143.37 197.82 138.33 199.38 133.34 201.24 C128.17 203.17 122.97 204.62 117.61 205.93 C116.75 206.15 115.88 206.37 115 206.6 C110.93 207.61 107.21 208.49 102.98 208.18 C102.32 205.87 101.66 203.56 100.98 201.18 C105.35 195.65 110.16 194.65 116.86 193.12 C118.94 192.61 121.01 192.1 123.09 191.59 C124.1 191.35 125.11 191.11 126.15 190.86 C134.34 188.89 142.46 186.75 150.42 183.99 C155 182.41 159.17 181.55 163.98 181.18 C163.98 175.9 163.98 170.62 163.98 165.18 C153.17 167.69 142.41 170.27 131.73 173.3 C123.67 175.58 115.54 177.58 107.4 179.58 C103.59 180.52 99.79 181.48 95.98 182.43 C93.65 183.01 91.32 183.6 88.98 184.18 C88.35 184.38 87.71 184.58 87.05 184.79 C81.78 185.79 77.77 185.99 73.17 183.17 C71.91 182.29 70.66 181.4 69.42 180.49 C68.8 180.06 68.18 179.62 67.54 179.17 C65.68 177.86 63.83 176.52 61.98 175.18 C60.72 174.29 59.45 173.39 58.18 172.5 C55.1 170.26 52.63 167.9 49.98 165.18 C45 160.57 39.55 156.59 34.11 152.54 C27.84 147.8 21.77 142.81 15.92 137.55 C11.09 133.28 5.77 129.07 -0.02 126.18 C0 124.87 0 124.87 0.02 123.54 C0.05 120.27 0.08 117.01 0.09 113.75 C0.1 112.34 0.12 110.93 0.14 109.53 C0.16 107.49 0.17 105.46 0.18 103.43 C0.2 101.6 0.2 101.6 0.21 99.73 C-0.04 95.87 -0.83 92.84 -2.02 89.18 C-1.36 88.85 -0.7 88.52 -0.02 88.18 C-4.71 85.98 -9.1 84.59 -14.2 83.61 C-16.02 83.18 -16.02 83.18 -17.02 82.18 C-18.94 81.73 -20.88 81.32 -22.83 80.93 C-36.07 78.16 -49.19 74.9 -62.11 70.88 C-65.53 69.83 -68.91 68.98 -72.42 68.31 C-80.18 66.82 -87.81 64.73 -95.45 62.74 C-98.02 62.08 -100.59 61.42 -103.16 60.75 C-104.96 60.29 -106.76 59.82 -108.55 59.36 C-115.39 57.6 -122.23 55.85 -129.07 54.11 C-131.05 53.6 -133.04 53.1 -135.02 52.6 C-137.92 51.86 -140.81 51.12 -143.71 50.39 C-146.4 49.7 -149.09 49.02 -151.79 48.33 C-152.59 48.13 -153.4 47.92 -154.23 47.71 C-159.79 46.29 -159.79 46.29 -162.02 45.18 C-162.02 44.52 -162.02 43.86 -162.02 43.18 C-153.93 40.29 -145.77 38.51 -137.37 36.78 C-129.7 35.14 -122.18 33.14 -114.64 30.98 C-104.87 28.2 -95.06 25.62 -85.21 23.17 C-84.53 23 -83.85 22.83 -83.15 22.66 C-79 21.63 -74.84 20.6 -70.68 19.57 C-64.42 18.03 -58.16 16.48 -51.89 14.92 C-51.23 14.76 -50.57 14.59 -49.89 14.42 C-41.39 12.31 -32.92 10.14 -24.51 7.7 C-18.97 6.1 -13.41 4.97 -7.74 3.95 C-4.47 3.03 -3.23 0.29 0 0 Z M167.98 139.18 C168.98 141.18 168.98 141.18 168.98 141.18 Z M166.98 141.18 C166.98 149.43 166.98 157.68 166.98 166.18 C167.31 166.18 167.64 166.18 167.98 166.18 C167.98 157.93 167.98 149.68 167.98 141.18 C167.65 141.18 167.32 141.18 166.98 141.18 Z M165.98 170.18 C166.98 174.18 166.98 174.18 166.98 174.18 Z M165.98 175.18 C166.98 179.18 166.98 179.18 166.98 179.18 Z M166.98 179.18 C166.98 184.13 166.98 189.08 166.98 194.18 C167.31 194.18 167.64 194.18 167.98 194.18 C167.98 189.23 167.98 184.28 167.98 179.18 C167.65 179.18 167.32 179.18 166.98 179.18 Z M165.98 196.18 C166.98 199.18 166.98 199.18 166.98 199.18 Z M167.98 202.18 C168.98 206.18 168.98 206.18 168.98 206.18 Z M166.98 208.18 C166.98 213.13 166.98 218.08 166.98 223.18 C167.31 223.18 167.64 223.18 167.98 223.18 C167.98 218.23 167.98 213.28 167.98 208.18 C167.65 208.18 167.32 208.18 166.98 208.18 Z M166.98 231.18 C166.98 235.14 166.98 239.1 166.98 243.18 C167.31 243.18 167.64 243.18 167.98 243.18 C167.98 239.22 167.98 235.26 167.98 231.18 C167.65 231.18 167.32 231.18 166.98 231.18 Z M167.98 249.18 C168.98 251.18 168.98 251.18 168.98 251.18 Z " fill="#2477BD" transform="translate(639.015625,329.8203125)"/>
<path d="M0 0 C0 61.38 0 122.76 0 186 C-10.82 189.09 -10.82 189.09 -17 186 C-18.39 185.8 -19.79 185.64 -21.19 185.5 C-22.45 185.34 -23.7 185.17 -25 185 C-25.33 184.34 -25.66 183.68 -26 183 C-28.37 182.62 -30.68 182.34 -33.06 182.12 C-42.6 181.11 -51.89 179.04 -61 176 C-62.3 175.78 -62.3 175.78 -63.62 175.56 C-64.41 175.38 -65.19 175.19 -66 175 C-66.33 174.34 -66.66 173.68 -67 173 C-68.99 172.64 -68.99 172.64 -71.38 172.56 C-76.31 172.17 -80.77 171.08 -85.51 169.7 C-88.32 168.91 -91.12 168.44 -94 168 C-94.66 167.67 -95.32 167.34 -96 167 C-97.54 166.62 -99.08 166.27 -100.62 165.94 C-101.44 165.76 -102.26 165.58 -103.1 165.4 C-103.73 165.27 -104.35 165.14 -105 165 C-105 164.67 -105 164.34 -105 164 C-105.71 163.88 -106.42 163.76 -107.15 163.63 C-108.53 163.38 -108.53 163.38 -109.94 163.12 C-110.85 162.96 -111.77 162.8 -112.71 162.63 C-113.85 162.32 -113.85 162.32 -115 162 C-115.33 161.34 -115.66 160.68 -116 160 C-118.32 159.57 -118.32 159.57 -121 159.44 C-125.9 159.1 -125.9 159.1 -127 158 C-130.74 157.14 -134.53 156.56 -138.31 155.94 C-139.92 155.67 -139.92 155.67 -141.55 155.4 C-142.36 155.27 -143.17 155.14 -144 155 C-144 154.67 -144 154.34 -144 154 C-144.89 153.88 -145.78 153.76 -146.7 153.63 C-148.46 153.38 -148.46 153.38 -150.25 153.12 C-151.99 152.88 -151.99 152.88 -153.77 152.63 C-158.5 151.71 -161.92 149.49 -166 147 C-165.34 146.67 -164.68 146.34 -164 146 C-163.34 146.33 -162.68 146.66 -162 147 C-162.23 146.18 -162.23 146.18 -162.47 145.34 C-165.15 133.59 -164.15 120.67 -164.13 108.7 C-164.13 106.64 -164.13 104.59 -164.14 102.54 C-164.14 98.25 -164.14 93.97 -164.13 89.68 C-164.12 84.23 -164.13 78.78 -164.13 73.33 C-164.14 69.09 -164.14 64.86 -164.13 60.62 C-164.13 58.61 -164.13 56.61 -164.14 54.6 C-164.15 43.35 -163.95 32.21 -163 21 C-162.67 21 -162.34 21 -162 21 C-161.67 26.61 -161.34 32.22 -161 38 C-159.21 38.38 -159.21 38.38 -157.38 38.77 C-155.77 39.12 -154.17 39.46 -152.56 39.81 C-151.78 39.98 -151 40.14 -150.19 40.31 C-146.27 41.17 -142.48 42.13 -138.7 43.45 C-133.01 45.41 -127.17 46.71 -121.31 48.06 C-119.12 48.57 -116.93 49.08 -114.74 49.6 C-113.78 49.82 -112.82 50.04 -111.83 50.27 C-108.83 51.04 -105.94 52.02 -103 53 C-101.68 53.31 -100.35 53.58 -99.02 53.82 C-98.33 53.94 -97.64 54.07 -96.93 54.19 C-96.23 54.32 -95.53 54.44 -94.81 54.56 C-87.36 55.88 -87.36 55.88 -84 57 C-79.87 57.73 -76.43 57.83 -72.73 55.68 C-70.41 53.87 -68.2 51.96 -66 50 C-64.59 48.88 -63.18 47.78 -61.75 46.69 C-61.01 46.11 -60.28 45.54 -59.52 44.95 C-56.52 42.63 -53.51 40.31 -50.5 38 C-48.33 36.33 -46.17 34.67 -44 33 C-43.19 32.38 -42.39 31.76 -41.55 31.12 C-36.55 27.25 -31.64 23.27 -26.75 19.25 C-23.38 16.49 -19.97 13.77 -16.56 11.06 C-14.7 9.56 -12.86 8.04 -11.04 6.5 C-10.05 5.68 -9.07 4.85 -8.06 4 C-7.17 3.24 -6.27 2.47 -5.35 1.69 C-3 0 -3 0 0 0 Z M-105 97 C-104.67 97.66 -104.34 98.32 -104 99 C-103.34 98.67 -102.68 98.34 -102 98 C-102.99 97.67 -103.98 97.34 -105 97 Z M-110 99 C-109.67 100.65 -109.34 102.3 -109 104 C-108.67 103.34 -108.34 102.68 -108 102 C-108.66 101.01 -109.32 100.02 -110 99 Z M-107 101 C-106.45 104.95 -105.61 108.35 -104 112 C-103.34 112 -102.68 112 -102 112 C-102 112.66 -102 113.32 -102 114 C-96.35 118.38 -90.28 121.74 -83 121 C-79.47 119.55 -76.29 118.13 -74 115 C-73.23 112.2 -73 109.91 -73 107 C-79.27 105.02 -85.54 103.04 -92 101 C-92 100.34 -92 99.68 -92 99 C-97.53 98.81 -101.76 99.25 -107 101 Z M-83 102 C-79 103 -79 103 -79 103 Z M-156 150 C-156 150.33 -156 150.66 -156 151 C-153.69 151 -151.38 151 -149 151 C-149 150.67 -149 150.34 -149 150 C-151.31 150 -153.62 150 -156 150 Z M-138 154 C-138 154.33 -138 154.66 -138 155 C-136.35 155 -134.7 155 -133 155 C-133 154.67 -133 154.34 -133 154 C-134.65 154 -136.3 154 -138 154 Z M-81 169 C-81 169.33 -81 169.66 -81 170 C-79.35 170 -77.7 170 -76 170 C-76 169.67 -76 169.34 -76 169 C-77.65 169 -79.3 169 -81 169 Z M-40 179 C-36 180 -36 180 -36 180 Z " fill="#539BD2" transform="translate(640,457)"/>
<path d="M0 0 C0.33 0.99 0.66 1.98 1 3 C3.55 4.58 6.08 5.37 9 6 C9 6.99 9 7.98 9 9 C9.57 9.26 10.14 9.52 10.73 9.78 C13.21 11.11 15.13 12.65 17.25 14.5 C17.96 15.11 18.66 15.72 19.39 16.34 C21 18 21 18 21 20 C21.6 20.12 22.2 20.25 22.81 20.38 C25 21 25 21 28 23 C28 23.66 28 24.32 28 25 C29.08 25.06 29.08 25.06 30.19 25.12 C33.49 26.15 34.52 27.65 36.57 30.34 C38.13 32.15 39.74 33.41 41.68 34.81 C45.85 37.87 49.87 41.09 53.88 44.38 C59.3 48.81 64.75 53.2 70.28 57.51 C72 59 72 59 73 61 C75.31 62.6 77.68 64.07 80.07 65.56 C80.7 66.04 81.34 66.51 82 67 C82 67.66 82 68.32 82 69 C81.34 69 80.68 69 80 69 C79.67 69.99 79.34 70.98 79 72 C76.23 72.75 73.57 73.33 70.75 73.81 C63.95 75 57.38 76.71 50.76 78.64 C41.97 81.21 33.13 83.56 24.26 85.8 C23.61 85.97 22.96 86.13 22.29 86.3 C18.25 87.33 14.2 88.35 10.16 89.36 C4.8 90.71 -0.56 92.07 -5.93 93.42 C-7.26 93.76 -8.59 94.1 -9.92 94.43 C-21.54 97.36 -33.14 100.35 -44.73 103.35 C-68.44 109.5 -68.44 109.5 -78 111 C-78 111.99 -78 112.98 -78 114 C-80.25 114.38 -80.25 114.38 -83 114 C-84.39 112.04 -85.73 110.04 -87 108 C-87.99 108 -88.98 108 -90 108 C-92.63 106.14 -92.63 106.14 -95.56 103.69 C-96.53 102.89 -97.5 102.09 -98.5 101.26 C-101 99 -101 99 -103 96 C-105.55 94.8 -105.55 94.8 -108 94 C-108 93.34 -108 92.68 -108 92 C-108.74 91.73 -109.49 91.46 -110.25 91.19 C-112.89 90.05 -114.86 88.91 -117 87 C-117 86.34 -117 85.68 -117 85 C-117.99 84.67 -118.98 84.34 -120 84 C-120.99 83.01 -120.99 83.01 -122 82 C-122.87 81.34 -123.73 80.68 -124.62 80 C-125.8 79.01 -125.8 79.01 -127 78 C-127 77.34 -127 76.68 -127 76 C-127.66 75.81 -128.32 75.63 -129 75.44 C-133.32 73.37 -136.48 70.21 -140 67 C-144.6 63.01 -149.44 59.48 -154.41 55.96 C-158.95 52.52 -162.41 48.39 -166 44 C-163.58 41.13 -161.48 40.36 -157.88 39.44 C-155.25 38.8 -155.25 38.8 -153 38 C-152.67 37.34 -152.34 36.68 -152 36 C-151.46 36.23 -150.93 36.45 -150.38 36.69 C-146.94 37.14 -144.94 35.67 -142 34 C-142 34.66 -142 35.32 -142 36 C-140.37 35.52 -138.75 35.04 -137.12 34.56 C-136.22 34.3 -135.32 34.03 -134.38 33.75 C-132.02 33.07 -132.02 33.07 -130 32 C-129.67 31.34 -129.34 30.68 -129 30 C-129 30.99 -129 31.98 -129 33 C-128.28 32.67 -127.56 32.34 -126.81 32 C-123.98 30.99 -121.97 30.83 -119 31 C-119 30.34 -119 29.68 -119 29 C-118.17 28.88 -117.34 28.76 -116.48 28.63 C-115.39 28.47 -114.31 28.3 -113.19 28.12 C-112.11 27.96 -111.03 27.8 -109.92 27.63 C-106.83 27.15 -106.83 27.15 -104 25 C-101.74 24.8 -101.74 24.8 -99.31 24.88 C-98.1 24.9 -98.1 24.9 -96.86 24.93 C-96.25 24.95 -95.63 24.98 -95 25 C-95 24.34 -95 23.68 -95 23 C-94.16 22.85 -93.32 22.71 -92.46 22.55 C-84.44 21.06 -76.6 19.17 -68.75 16.94 C-67.83 16.68 -66.92 16.42 -65.97 16.16 C-65.11 15.91 -64.25 15.66 -63.36 15.4 C-62.59 15.18 -61.82 14.96 -61.03 14.73 C-58.73 14 -58.73 14 -56 12 C-56 12.66 -56 13.32 -56 14 C-54.35 13.34 -52.7 12.68 -51 12 C-51 11.34 -51 10.68 -51 10 C-48.69 10 -46.38 10 -44 10 C-43.67 9.34 -43.34 8.68 -43 8 C-43 8.66 -43 9.32 -43 10 C-38.54 9.5 -38.54 9.5 -34 9 C-34 8.34 -34 7.68 -34 7 C-32.68 6.34 -31.36 5.68 -30 5 C-30 5.66 -30 6.32 -30 7 C-28.76 6.66 -27.51 6.32 -26.23 5.98 C-17.54 3.64 -8.91 1.34 0 0 Z " fill="#539AD1" transform="translate(555,262)"/>
<path d="M0 0 C15.8 1.19 30.92 5.56 46.11 9.88 C47.07 10.16 48.04 10.43 49.03 10.71 C50.3 11.08 50.3 11.08 51.6 11.45 C55.15 12.26 58.37 12.21 62 12 C61.67 12.66 61.34 13.32 61 14 C78.33 18.82 78.33 18.82 96 22 C96 22.66 96 23.32 96 24 C96.89 24.05 97.78 24.1 98.7 24.15 C99.87 24.22 101.04 24.3 102.25 24.38 C103.41 24.44 104.57 24.51 105.77 24.59 C108.79 24.97 110.36 25.62 113 27 C115.62 27.35 118.22 27.5 120.86 27.66 C121.92 27.83 121.92 27.83 123 28 C123.33 28.66 123.66 29.32 124 30 C126.64 30.88 126.64 30.88 129.87 31.59 C131.09 31.88 132.3 32.17 133.55 32.47 C134.83 32.77 136.12 33.07 137.44 33.38 C156.96 37.94 156.96 37.94 162 41 C163.26 43.13 163.26 43.13 164 45 C163.55 45.6 163.09 46.2 162.62 46.81 C161.37 48.51 160.17 50.24 159 52 C158.01 51.67 157.02 51.34 156 51 C156 51.99 156 52.98 156 54 C151.66 58 151.66 58 149 58 C148.67 57.67 148.34 57.34 148 57 C147.85 57.96 147.85 57.96 147.69 58.94 C147.35 59.96 147.35 59.96 147 61 C146.01 61.33 145.02 61.66 144 62 C143.67 62.66 143.34 63.32 143 64 C141.35 64 139.7 64 138 64 C138.33 64.99 138.66 65.98 139 67 C138.01 67.33 137.02 67.66 136 68 C135.67 67.67 135.34 67.34 135 67 C134.67 68.32 134.34 69.64 134 71 C133.34 71 132.68 71 132 71 C131.34 71.99 130.68 72.98 130 74 C125.43 78 125.43 78 123 78 C122.66 78.93 122.66 78.93 122.31 79.88 C120.62 82.62 118.97 82.93 116 84 C115.67 84.66 115.34 85.32 115 86 C114.01 86 113.02 86 112 86 C111.81 86.96 111.81 86.96 111.62 87.94 C111.42 88.62 111.21 89.3 111 90 C110.01 90.5 110.01 90.5 109 91 C108.24 91.82 107.47 92.65 106.69 93.5 C103.93 96.07 102.67 96.69 99 97 C99 97.66 99 98.32 99 99 C97.67 100.33 96.33 101.67 95 103 C94.01 102.67 93.02 102.34 92 102 C90.01 103.39 89.11 104.54 88.54 106.91 C87.88 111.07 87.88 111.07 89 115 C88.34 115.66 87.68 116.32 87 117 C85.93 115.5 84.85 114.01 83.78 112.51 C81.12 110.26 78.36 109.82 75 109 C73.82 108.7 72.63 108.41 71.41 108.11 C70.16 107.8 68.91 107.5 67.62 107.19 C61.84 105.77 56.14 104.17 50.44 102.44 C44.21 100.56 38.01 99.14 31.61 97.94 C16.13 94.9 0.74 90.9 -14.45 86.63 C-17.05 85.88 -17.05 85.88 -20 86 C-24 85.16 -27.95 84.16 -31.91 83.17 C-33.86 82.69 -35.81 82.22 -37.75 81.75 C-39.6 81.29 -39.6 81.29 -41.49 80.82 C-42.62 80.55 -43.75 80.27 -44.91 79.98 C-47.98 79.01 -50.26 77.67 -53 76 C-55.42 75.19 -55.42 75.19 -57.94 74.68 C-59.31 74.37 -59.31 74.37 -60.71 74.06 C-61.65 73.85 -62.59 73.65 -63.56 73.44 C-65.44 73.02 -67.32 72.61 -69.19 72.18 C-70.02 72 -70.85 71.82 -71.7 71.64 C-73.99 71 -75.89 70.1 -78 69 C-80.66 68.48 -83.29 68.27 -86 68 C-86 67.67 -86 67.34 -86 67 C-84.58 66.78 -84.58 66.78 -83.12 66.56 C-78.17 65.19 -74.97 61.67 -71.33 58.19 C-65.81 53 -65.81 53 -63 53 C-63.33 52.01 -63.66 51.02 -64 50 C-61.48 47.1 -61.48 47.1 -59.19 46.62 C-56.78 45.94 -55.75 45.06 -53.88 43.44 C-51 41 -51 41 -49 41 C-49 40.34 -49 39.68 -49 39 C-47.66 37.78 -47.66 37.78 -45.78 36.43 C-45.1 35.93 -44.42 35.43 -43.72 34.91 C-42.98 34.38 -42.25 33.86 -41.5 33.31 C-40.03 32.23 -38.56 31.14 -37.09 30.05 C-36.02 29.26 -36.02 29.26 -34.94 28.46 C-27.39 22.96 -27.39 22.96 -23 15 C-20.88 13.19 -20.88 13.19 -19 12 C-19.66 13.32 -20.32 14.64 -21 16 C-18.24 14.73 -16.11 13.37 -13.88 11.31 C-10.13 8 -6.09 5.22 -1.94 2.42 C-1.3 1.95 -0.66 1.48 0 1 C0 0.67 0 0.34 0 0 Z M150 54 C150 54.66 150 55.32 150 56 C150.66 55.67 151.32 55.34 152 55 C151.34 54.67 150.68 54.34 150 54 Z M119 78 C120 82 120 82 120 82 Z M102 92 C102.33 92.66 102.66 93.32 103 94 C103.66 93.34 104.32 92.68 105 92 C104.01 92 103.02 92 102 92 Z " fill="#80BFE7" transform="translate(724,263)"/>
<path d="M0 0 C0.98 1.13 1.91 2.31 2.81 3.5 C6.82 8.26 11.59 11.08 16.91 14.14 C20.84 16.5 24.06 18.8 26.9 22.42 C29.47 25.58 32.37 27.82 35.62 30.25 C36.21 30.7 36.8 31.14 37.4 31.6 C40.57 34.01 40.57 34.01 44 36 C44 36.66 44 37.32 44 38 C44.59 38.11 45.18 38.21 45.79 38.32 C48.29 39.09 49.51 40.06 51.44 41.81 C53.57 43.73 55.66 45.51 57.94 47.25 C58.62 47.83 59.3 48.4 60 49 C60 49.66 60 50.32 60 51 C60.54 51.25 61.07 51.5 61.62 51.75 C64.58 53.31 67.3 55.03 70 57 C70 57.66 70 58.32 70 59 C70.84 59.37 70.84 59.37 71.69 59.75 C74.42 61.23 76.68 62.93 79 65 C79 65.66 79 66.32 79 67 C90.56 65.79 101.52 63.31 112.75 60.38 C115.19 59.74 117.62 59.11 120.06 58.49 C121.56 58.1 123.06 57.71 124.56 57.32 C127.46 56.57 129.99 56 133 56 C133 55.34 133 54.68 133 54 C140.82 51.26 147.68 49.32 156 50 C156 49.34 156 48.68 156 48 C156.56 48.19 157.11 48.37 157.69 48.56 C160.4 49.08 162.34 48.66 165 48 C166.1 55.96 166.15 63.84 166.13 71.87 C166.13 73.31 166.13 74.75 166.14 76.2 C166.14 79.22 166.14 82.24 166.13 85.26 C166.12 89.07 166.13 92.89 166.13 96.7 C166.17 123.88 166.17 123.88 165.32 137.19 C164.97 142.82 165.06 148.32 165.5 153.94 C165.62 155.59 165.73 157.25 165.84 158.9 C165.92 159.95 165.92 159.95 166.01 161.01 C166 163.17 165.53 164.92 165 167 C165.01 170.45 165.07 173.89 165.21 177.33 C165.26 179.45 165.26 179.45 165 183 C164.01 183.66 163.02 184.32 162 185 C160.5 182 160.91 179.21 160.94 175.88 C160.95 174.59 160.96 173.31 160.96 171.99 C160.98 170.51 160.98 170.51 161 169 C152.49 171 144.12 173.22 135.81 175.94 C128.83 178.2 121.82 180.16 114.69 181.88 C113.81 182.09 112.93 182.31 112.03 182.53 C107.64 183.56 103.53 184.46 99 184 C98.34 183.34 97.68 182.68 97 182 C97.19 179.06 97.37 176.84 99.17 174.44 C101.66 172.48 104.09 171.82 107.12 170.94 C108.29 170.6 109.46 170.26 110.66 169.91 C114.01 169 117.36 168.2 120.76 167.49 C126.66 166.2 132.49 164.56 138.19 162.56 C144.98 160.22 152.02 158.69 159 157 C159 154.36 159 151.72 159 149 C151.3 149.85 144.39 151.04 137.2 153.93 C132.15 155.62 126.95 156.55 121.72 157.52 C114.26 158.91 114.26 158.91 108 163 C106 163.17 106 163.17 103.56 163.19 C102.76 163.2 101.96 163.22 101.13 163.23 C99 163 99 163 97 161 C96.62 158.12 96.62 158.12 97 155 C99.95 151.23 102.35 150.4 107 149.62 C113.02 148.47 118.82 146.97 124.69 145.19 C125.95 144.8 125.95 144.8 127.23 144.41 C131.59 143.08 135.92 141.71 140.26 140.31 C141.11 140.04 141.96 139.77 142.83 139.49 C144.44 138.97 146.04 138.45 147.65 137.92 C152.11 136.47 156.34 135.52 161 135 C161 132.69 161 130.38 161 128 C156.4 126.59 152.81 127.58 148.34 128.91 C147.6 129.12 146.86 129.33 146.1 129.55 C143.71 130.23 141.32 130.93 138.94 131.62 C135.68 132.56 132.42 133.48 129.16 134.41 C127.96 134.75 127.96 134.75 126.75 135.1 C119.69 137.11 112.6 138.93 105.46 140.64 C101.63 141.53 101.63 141.53 98 143 C96.67 136.86 96.67 136.86 97.98 133.42 C100.78 130.06 103.91 129.46 108 128.5 C108.8 128.3 109.6 128.09 110.42 127.88 C112.94 127.24 115.47 126.62 118 126 C121.11 125.22 124.21 124.43 127.31 123.62 C128.08 123.43 128.85 123.23 129.64 123.03 C136.98 121.1 144.15 118.71 151.32 116.23 C152.17 115.94 153.01 115.65 153.88 115.36 C154.63 115.09 155.38 114.83 156.15 114.56 C158 114 158 114 160 114 C159.67 110.7 159.34 107.4 159 104 C155.23 105.08 151.46 106.16 147.69 107.25 C146.11 107.7 146.11 107.7 144.5 108.16 C139.38 109.64 134.34 111.2 129.36 113.06 C124.19 114.99 118.98 116.44 113.62 117.75 C112.76 117.97 111.9 118.19 111.01 118.42 C106.94 119.43 103.23 120.31 99 120 C98.01 116.53 98.01 116.53 97 113 C101.36 107.47 106.18 106.48 112.88 104.94 C114.95 104.43 117.03 103.92 119.11 103.41 C120.12 103.17 121.13 102.93 122.17 102.68 C130.36 100.71 138.48 98.57 146.44 95.81 C151.01 94.23 155.18 93.37 160 93 C160 87.72 160 82.44 160 77 C149.19 79.51 138.43 82.09 127.75 85.12 C119.68 87.4 111.55 89.4 103.41 91.4 C99.61 92.34 95.8 93.3 92 94.25 C89.67 94.83 87.33 95.42 85 96 C84.04 96.3 84.04 96.3 83.06 96.61 C77.8 97.61 73.78 97.81 69.18 94.99 C67.92 94.12 66.67 93.22 65.44 92.31 C64.82 91.88 64.2 91.44 63.56 90.99 C61.69 89.68 59.85 88.34 58 87 C56.73 86.11 55.46 85.21 54.19 84.32 C51.12 82.08 48.65 79.72 46 77 C41.01 72.39 35.57 68.41 30.12 64.36 C23.85 59.62 17.79 54.63 11.94 49.38 C7.11 45.1 1.79 40.89 -4 38 C-3.99 37.13 -3.98 36.26 -3.97 35.36 C-3.93 32.09 -3.91 28.83 -3.89 25.57 C-3.88 24.16 -3.87 22.75 -3.85 21.35 C-3.82 19.31 -3.81 17.28 -3.8 15.25 C-3.79 14.03 -3.78 12.81 -3.77 11.55 C-4.02 7.69 -4.81 4.66 -6 1 C-3.92 0.45 -2.16 0 0 0 Z M164 51 C165 53 165 53 165 53 Z M163 53 C163 61.25 163 69.5 163 78 C163.33 78 163.66 78 164 78 C164 69.75 164 61.5 164 53 C163.67 53 163.34 53 163 53 Z M162 82 C163 86 163 86 163 86 Z M162 87 C163 91 163 91 163 91 Z M163 91 C163 95.95 163 100.9 163 106 C163.33 106 163.66 106 164 106 C164 101.05 164 96.1 164 91 C163.67 91 163.34 91 163 91 Z M162 108 C163 111 163 111 163 111 Z M164 114 C165 118 165 118 165 118 Z M163 120 C163 124.95 163 129.9 163 135 C163.33 135 163.66 135 164 135 C164 130.05 164 125.1 164 120 C163.67 120 163.34 120 163 120 Z M163 143 C163 146.96 163 150.92 163 155 C163.33 155 163.66 155 164 155 C164 151.04 164 147.08 164 143 C163.67 143 163.34 143 163 143 Z M164 161 C165 163 165 163 165 163 Z " fill="#0A4A83" transform="translate(643,418)"/>
<path d="M0 0 C0.99 0.33 1.98 0.66 3 1 C3 29.71 3 58.42 3 88 C-3 86 -9 84 -15 82 C-17.04 81.53 -19.08 81.1 -21.12 80.69 C-34.26 77.93 -47.28 74.69 -60.09 70.7 C-63.51 69.65 -66.89 68.8 -70.4 68.13 C-78.16 66.64 -85.79 64.55 -93.44 62.56 C-96.01 61.9 -98.58 61.24 -101.15 60.57 C-102.94 60.11 -104.74 59.64 -106.54 59.18 C-113.37 57.42 -120.21 55.67 -127.05 53.93 C-129.04 53.43 -131.02 52.92 -133 52.42 C-135.9 51.68 -138.8 50.94 -141.7 50.21 C-144.39 49.52 -147.08 48.84 -149.77 48.15 C-150.58 47.95 -151.38 47.74 -152.21 47.54 C-157.77 46.11 -157.77 46.11 -160 45 C-160 44.34 -160 43.68 -160 43 C-151.91 40.11 -143.75 38.33 -135.36 36.6 C-127.68 34.96 -120.17 32.96 -112.62 30.8 C-102.85 28.02 -93.05 25.44 -83.19 22.99 C-82.51 22.82 -81.84 22.66 -81.14 22.48 C-76.98 21.45 -72.82 20.42 -68.66 19.39 C-62.4 17.85 -56.14 16.3 -49.88 14.74 C-49.22 14.58 -48.55 14.41 -47.87 14.24 C-39.37 12.13 -30.9 9.96 -22.49 7.52 C-16.95 5.92 -11.39 4.79 -5.72 3.77 C-2.91 2.97 -1.79 2.26 0 0 Z " fill="#0A4A83" transform="translate(637,330)"/>
<path d="M0 0 C0.99 0.66 1.98 1.32 3 2 C4.5 9.81 3.91 17.66 3.56 25.56 C3.51 26.86 3.46 28.15 3.4 29.49 C3.28 32.66 3.14 35.83 3 39 C2.39 39.3 1.77 39.59 1.14 39.9 C-1.4 41.21 -3.41 42.82 -5.62 44.62 C-6.51 45.34 -7.39 46.06 -8.29 46.79 C-9.19 47.52 -10.08 48.25 -11 49 C-12.64 50.31 -14.29 51.63 -15.94 52.94 C-19.52 55.8 -23.08 58.71 -26.62 61.62 C-30.35 64.68 -34.11 67.62 -37.98 70.48 C-40.3 72.23 -42.56 74.05 -44.81 75.88 C-49.27 79.47 -53.87 82.84 -58.52 86.18 C-62.14 88.84 -65.63 91.63 -68.81 94.81 C-74.02 97.64 -79.99 96.14 -85.44 94.62 C-86.26 94.37 -87.08 94.11 -87.93 93.85 C-90.5 93.14 -93 92.59 -95.61 92.08 C-101.42 90.95 -107.14 89.52 -112.88 88.06 C-113.87 87.81 -114.87 87.56 -115.9 87.3 C-117.92 86.79 -119.94 86.28 -121.95 85.77 C-128.46 84.13 -134.97 82.49 -141.5 80.9 C-142.49 80.66 -142.49 80.66 -143.5 80.41 C-144.82 80.09 -146.14 79.77 -147.46 79.45 C-151.1 78.55 -154.61 77.63 -158 76 C-158.33 75.34 -158.66 74.68 -159 74 C-159.02 85.98 -159.04 97.96 -159.05 109.94 C-159.06 115.5 -159.06 121.07 -159.08 126.63 C-159.09 132.01 -159.09 137.4 -159.09 142.78 C-159.1 144.82 -159.1 146.86 -159.11 148.9 C-159.14 160.65 -158.93 172.29 -158 184 C-159.32 184 -160.64 184 -162 184 C-162 137.8 -162 91.6 -162 44 C-157.05 45.98 -152.1 47.96 -147 50 C-143.92 50.88 -140.99 51.67 -137.88 52.31 C-137.17 52.47 -136.47 52.62 -135.75 52.78 C-133.02 53.38 -130.28 53.95 -127.52 54.43 C-123.83 55.26 -120.32 56.57 -116.75 57.81 C-98.63 64.75 -98.63 64.75 -80 65 C-78.27 63.4 -76.61 61.72 -75 60 C-67.69 53.72 -60.21 47.43 -51.88 42.56 C-49.15 40.9 -47.28 39.32 -45.31 36.81 C-42.39 33.14 -38.95 30.41 -35.25 27.56 C-34.67 27.11 -34.09 26.66 -33.49 26.2 C-29.26 23 -29.26 23 -27 23 C-26.67 22.01 -26.34 21.02 -26 20 C-25.01 19.67 -24.02 19.34 -23 19 C-21.32 17.35 -19.66 15.68 -18 14 C-16.05 12.47 -14.07 10.97 -12.06 9.5 C-7.93 6.45 -3.9 3.35 0 0 Z " fill="#2477BD" transform="translate(636,419)"/>
<path d="M0 0 C4.33 -0.32 6.98 0.43 10.88 2.18 C15.95 4.15 21.4 5.04 26.7 6.19 C27.61 6.4 28.52 6.6 29.46 6.82 C30.28 7 31.11 7.18 31.96 7.36 C34 8 34 8 36 10 C38.05 10.65 40.13 11.21 42.21 11.73 C43.46 12.04 44.7 12.35 45.98 12.66 C46.63 12.82 47.28 12.98 47.95 13.14 C49.93 13.62 51.9 14.12 53.88 14.61 C60.37 16.35 60.37 16.35 67 17 C68.49 17.33 69.97 17.7 71.45 18.1 C72.35 18.34 73.25 18.58 74.17 18.83 C75.15 19.09 76.12 19.35 77.12 19.62 C85.77 21.92 94.43 24.11 103.12 26.19 C104.19 26.44 105.26 26.7 106.36 26.96 C111.44 28.17 116.53 29.35 121.62 30.5 C130.61 32.55 139.5 34.97 148.4 37.33 C150.78 37.94 153.16 38.5 155.54 39.05 C159.2 40.06 160.66 41.07 163 44 C161.52 45.48 160.03 45.46 157.98 45.83 C157.15 45.99 156.32 46.15 155.46 46.31 C154.57 46.47 153.67 46.64 152.75 46.81 C145.79 48.16 139.07 49.73 132.32 51.93 C121.8 55.31 111.09 58.04 100.31 60.48 C95.43 61.61 90.66 62.96 85.88 64.44 C78.02 66.85 70.07 68.59 62.02 70.21 C56.41 71.37 51.33 72.91 46 75 C44.03 75.56 42.05 76.08 40.06 76.56 C39.04 76.81 38.01 77.06 36.95 77.31 C33.69 78.07 30.44 78.82 27.16 79.52 C25.63 79.86 24.11 80.22 22.59 80.6 C21.79 80.79 21 80.99 20.19 81.19 C19.48 81.37 18.77 81.55 18.04 81.73 C15.76 82.03 14.18 81.69 12 81 C12.82 80.78 13.64 80.56 14.49 80.34 C21.23 78.42 26.79 76.19 32.65 72.38 C35.04 70.98 37.22 70.2 39.88 69.44 C43.05 68.5 43.8 68.26 45.94 65.56 C49.06 61.68 53.28 60.35 58 59 C59.32 59 60.64 59 62 59 C63.42 58.26 63.42 58.26 64.88 57.5 C68.3 55.86 70.27 55.92 74 56 C75.68 55.36 77.35 54.7 79 54 C80.32 54 81.64 54 83 54 C82.67 55.65 82.34 57.3 82 59 C87.94 58.73 93.61 57.77 99.38 56.31 C100.54 56.02 101.7 55.73 102.9 55.43 C106.75 53.66 107.83 51.56 110 48 C110.99 47.67 111.98 47.34 113 47 C113.66 47.33 114.32 47.66 115 48 C115 47.34 115 46.68 115 46 C114.28 45.94 113.56 45.88 112.82 45.82 C109.07 44.73 107.55 42.81 104.94 39.94 C102.51 37.17 102.51 37.17 100 35 C98.68 35 97.36 35 96 35 C93.72 37.92 93.72 37.92 92 41 C90.51 40.5 90.51 40.5 89 40 C88.5 37.03 88.5 37.03 88 34 C85.65 33.31 85.65 33.31 83 33 C82.01 33.66 81.02 34.32 80 35 C78.12 35.3 78.12 35.3 76.02 35.38 C75.24 35.41 74.47 35.45 73.68 35.48 C72.48 35.52 72.48 35.52 71.25 35.56 C64.62 35.81 64.62 35.81 58.04 36.59 C55 37 55 37 53.06 36 C51.49 33.04 51.94 30.31 52 27 C51.1 24.17 51.1 24.17 50 22 C51.32 21.34 52.64 20.68 54 20 C50.37 19.01 46.74 18.02 43 17 C42.01 18.32 41.02 19.64 40 21 C35.89 22.32 32.03 21.44 28.14 19.79 C23.39 17.26 19.11 14.48 15 11 C13.35 9.75 11.68 8.53 10 7.31 C9.17 6.71 8.35 6.11 7.5 5.49 C4.94 3.96 2.94 3.39 0 3 C0 2.01 0 1.02 0 0 Z " fill="#3178B6" transform="translate(640,331)"/>
<path d="M0 0 C0.66 0 1.32 0 2 0 C2.66 0.99 3.32 1.98 4 3 C5.32 3 6.64 3 8 3 C10.05 5.05 9.2 9.38 9.22 12.2 C9.23 13.06 9.24 13.92 9.26 14.81 C9.29 17.67 9.32 20.53 9.35 23.39 C9.37 25.37 9.4 27.35 9.42 29.34 C9.47 33.5 9.52 37.66 9.56 41.83 C9.61 47.16 9.68 52.49 9.74 57.83 C9.79 61.93 9.84 66.02 9.88 70.12 C9.9 72.09 9.93 74.05 9.95 76.02 C9.99 78.77 10.01 81.53 10.04 84.28 C10.05 85.5 10.05 85.5 10.07 86.74 C10.1 90.63 9.96 94.22 9 98 C7.68 97.67 6.36 97.34 5 97 C5.5 100.69 6.1 102.6 9 105 C10.49 104.5 10.49 104.5 12 104 C12.78 104.66 13.57 105.32 14.38 106 C16.83 108.33 16.83 108.33 19.81 107.75 C20.53 107.5 21.26 107.25 22 107 C22.1 107.7 22.21 108.4 22.31 109.12 C23.09 112.39 24.45 115.03 26 118 C26 118.33 26 118.66 26 119 C26.66 119 27.32 119 28 119 C28 119.99 28 120.98 28 122 C29.65 122 31.3 122 33 122 C33.33 121.34 33.66 120.68 34 120 C34.66 120 35.32 120 36 120 C40.46 118.44 44.79 116.75 48.81 114.25 C51.39 112.77 53.07 112.75 56 113 C55.34 114.32 54.68 115.64 54 117 C52.35 117 50.7 117 49 117 C49 117.99 49 118.98 49 120 C50.98 120 52.96 120 55 120 C55 120.33 55 120.66 55 121 C54.22 121.05 53.44 121.1 52.63 121.15 C51.11 121.26 51.11 121.26 49.56 121.38 C48.05 121.48 48.05 121.48 46.5 121.59 C45.68 121.72 44.85 121.86 44 122 C43.67 122.66 43.34 123.32 43 124 C40.23 124.6 40.23 124.6 36.75 125.06 C30.35 125.94 24.14 126.95 18 129 C16.11 129.22 14.21 129.41 12.31 129.56 C11.32 129.65 10.32 129.73 9.3 129.82 C8.54 129.88 7.78 129.94 7 130 C7 130.66 7 131.32 7 132 C2.38 132 -2.24 132 -7 132 C-4.99 128.99 -4.16 128.37 -1 127 C-1 126.35 -1 125.7 -1 125.04 C-1.02 109.28 -1.04 93.52 -1.05 77.77 C-1.06 70.15 -1.06 62.53 -1.08 54.91 C-1.09 48.27 -1.09 41.63 -1.09 34.99 C-1.1 31.47 -1.1 27.96 -1.11 24.44 C-1.11 20.52 -1.11 16.6 -1.11 12.68 C-1.12 11.51 -1.12 10.33 -1.12 9.12 C-1.12 8.06 -1.12 7 -1.12 5.9 C-1.12 4.98 -1.12 4.05 -1.12 3.09 C-1 1 -1 1 0 0 Z " fill="#3076B3" transform="translate(640,514)"/>
<path d="M0 0 C4.95 1.98 9.9 3.96 15 6 C18.08 6.88 21.01 7.67 24.12 8.31 C24.83 8.47 25.53 8.62 26.25 8.78 C28.98 9.38 31.72 9.95 34.48 10.43 C38.17 11.26 41.68 12.57 45.25 13.81 C63.37 20.75 63.37 20.75 82 21 C83.73 19.4 85.39 17.72 87 16 C90.59 12.91 94.3 9.96 98 7 C98.79 6.36 99.58 5.71 100.39 5.05 C101.08 4.5 101.78 3.94 102.5 3.38 C103.11 2.89 103.72 2.4 104.34 1.9 C104.89 1.6 105.44 1.31 106 1 C106.99 1.33 107.98 1.66 109 2 C110.54 8.75 110.54 8.75 109.13 12.02 C106.55 15.84 104.43 17.52 100 19 C99.5 20.49 99.5 20.49 99 22 C95.44 23.19 95.44 23.19 92 24 C91.5 23.01 91.5 23.01 91 22 C88.78 24.22 88.07 26.08 87 29 C83.28 29.2 82.23 29.15 79 27 C75.38 26.06 71.68 25.5 68 24.88 C67.01 24.69 66.02 24.51 65 24.32 C53.82 22.05 53.82 22.05 43 24 C39.62 24.41 36.38 24.5 33 24 C30.38 21.62 30.38 21.62 29 19 C29 18.34 29 17.68 29 17 C28.13 16.71 27.27 16.42 26.38 16.12 C23 15 23 15 20.25 13.81 C16.3 12.83 13.17 13.23 9.17 13.81 C7 14 7 14 5 13 C5 18.94 5 24.88 5 31 C10.17 31.91 10.17 31.91 15.35 32.79 C20.78 33.78 20.78 33.78 23 36 C16.42 35.6 10.02 34.87 4 32 C3.67 31.34 3.34 30.68 3 30 C2.98 41.98 2.96 53.96 2.95 65.94 C2.94 71.5 2.94 77.07 2.92 82.63 C2.91 88.01 2.91 93.4 2.91 98.78 C2.9 100.82 2.9 102.86 2.89 104.9 C2.86 116.65 3.07 128.29 4 140 C2.68 140 1.36 140 0 140 C0 93.8 0 47.6 0 0 Z " fill="#3379B7" transform="translate(474,463)"/>
<path d="M0 0 C2.25 0.31 2.25 0.31 4 1 C4.33 2.65 4.66 4.3 5 6 C6.24 5.9 7.48 5.79 8.75 5.69 C10.95 5.67 10.95 5.67 13 6 C15.5 8.5 15.5 8.5 17 11 C15.75 14.65 15.33 15.78 12 18 C8.24 18.1 4.52 17.93 0.76 17.78 C-3.3 18.02 -5.59 18.82 -9 21 C-10.22 23.5 -10.22 23.5 -11 26 C-14.31 28.21 -15.34 28.22 -19.19 28.12 C-20.09 28.11 -20.99 28.09 -21.92 28.07 C-22.61 28.05 -23.29 28.02 -24 28 C-24.33 26.35 -24.66 24.7 -25 23 C-23.35 22.67 -21.7 22.34 -20 22 C-20.27 21.17 -20.54 20.35 -20.81 19.5 C-21.04 15.27 -20.27 13.35 -17.93 9.89 C-14.76 6.79 -10.97 5.55 -6.84 4.11 C-4.11 3.04 -2.31 1.75 0 0 Z " fill="#3278B6" transform="translate(696,591)"/>
<path d="M0 0 C0.5 1.49 0.5 1.49 1 3 C-3.26 6.73 -7.59 10.25 -12.15 13.62 C-15.14 15.85 -18.11 18.11 -20.75 20.75 C-25.98 23.65 -31.94 22.15 -37.44 20.62 C-38.26 20.37 -39.08 20.11 -39.93 19.85 C-42.5 19.14 -45 18.59 -47.61 18.08 C-53.42 16.95 -59.14 15.52 -64.88 14.06 C-65.87 13.81 -66.87 13.56 -67.9 13.3 C-69.91 12.79 -71.92 12.28 -73.93 11.77 C-76.07 11.23 -78.21 10.7 -80.36 10.18 C-81.44 9.91 -82.52 9.64 -83.63 9.37 C-84.61 9.13 -85.6 8.89 -86.61 8.65 C-89 8 -89 8 -91 7 C-91 6.34 -91 5.68 -91 5 C-87.76 5.46 -84.85 6.05 -81.75 7.12 C-79.08 8.33 -79.08 8.33 -77 7 C-74.53 6.9 -72.09 6.86 -69.62 6.88 C-68.95 6.87 -68.28 6.87 -67.59 6.86 C-64.22 6.87 -61.23 7.06 -58 8 C-57.15 7.98 -56.31 7.96 -55.44 7.94 C-53 8 -53 8 -50 10 C-48.3 10.43 -48.3 10.43 -46.56 10.88 C-42.74 12.08 -41.71 13.21 -39 16 C-33.87 18.81 -30.7 19.28 -25 18 C-25.99 17.01 -25.99 17.01 -27 16 C-19.69 6.33 -19.69 6.33 -15.64 5.55 C-14.14 5.68 -12.64 5.85 -11.14 6.05 C-7.59 5.97 -5.8 3.75 -3.41 1.31 C-2 0 -2 0 0 0 Z " fill="#3177B6" transform="translate(588,493)"/>
<path d="M0 0 C0.7 0.32 1.4 0.65 2.12 0.98 C5.3 2.1 7.76 2.27 11.12 2.25 C12.16 2.26 13.19 2.26 14.26 2.27 C17.22 2.2 17.22 2.2 20 0 C22.56 0.14 22.56 0.14 25.44 0.69 C26.38 0.86 27.33 1.03 28.31 1.2 C31.11 2.03 32.8 3.11 35 5 C34.21 5.11 33.43 5.22 32.62 5.33 C26.62 6.24 21.44 7.28 16 10 C16 10.33 16 10.66 16 11 C15.45 11.11 14.91 11.22 14.35 11.33 C9.38 12.38 4.7 13.72 -0.05 15.51 C-2 16 -2 16 -5 15 C-8.15 15.88 -8.15 15.88 -11 17 C-11 17.33 -11 17.66 -11 18 C-19.41 18.5 -19.41 18.5 -28 19 C-27.67 17.35 -27.34 15.7 -27 14 C-23.74 11.82 -21.82 11.56 -18 10.94 C-10.33 9.3 -5.58 5.33 0 0 Z " fill="#2C6AA1" transform="translate(739,608)"/>
<path d="M0 0 C1.14 0.34 1.14 0.34 2.31 0.69 C2.54 1.45 2.77 2.21 3.01 3 C5.13 9.71 7.62 15.69 11.31 21.69 C16.86 20.94 16.86 20.94 22.31 19.69 C22.97 20.68 23.63 21.67 24.31 22.69 C22.94 26.38 22.94 26.38 21.31 29.69 C20.08 29.65 18.84 29.61 17.56 29.56 C14.19 29.55 12.28 30.05 9.31 31.69 C6.81 32.12 6.81 32.12 4.31 31.69 C2.92 30.07 1.59 28.39 0.31 26.69 C-0.74 26.05 -1.79 25.41 -2.88 24.75 C-5.69 22.69 -5.69 22.69 -6.38 20.01 C-6.71 16.44 -6.67 13.08 -6.44 9.5 C-6.37 8.29 -6.3 7.08 -6.23 5.83 C-5.69 2.69 -5.69 2.69 -4.45 0.7 C-2.69 -0.31 -2.69 -0.31 0 0 Z " fill="#3278B6" transform="translate(682.6875,551.3125)"/>
<path d="M0 0 C3.91 1.58 5.63 4.11 7.26 7.91 C8.26 11.02 8.77 13.66 8.26 16.91 C6.55 19.72 5.32 20.27 2.26 21.91 C-2.66 22.09 -6.44 20.62 -10.27 17.63 C-13.17 14.23 -13.96 10.31 -13.74 5.91 C-10.59 -0.61 -6.49 -1.58 0 0 Z " fill="#0A4A83" transform="translate(576.73828125,531.08984375)"/>
<path d="M0 0 C4.25 3.87 5.83 8.32 6.12 13.98 C6 16 6 16 5.12 18.56 C1.61 20.94 -1.91 20.7 -6 20 C-9.88 17.99 -12.9 15.87 -15 12 C-15.97 8.18 -16.34 5.9 -14.94 2.19 C-10.55 -2.77 -5.77 -2.62 0 0 Z " fill="#0A4A83" transform="translate(529,519)"/>
<path d="M0 0 C0.99 0.66 1.98 1.32 3 2 C2.67 3.32 2.34 4.64 2 6 C1.34 6 0.68 6 0 6 C-2.82 10.55 -4.14 13.7 -5 19 C-8 21 -8 21 -11.62 21.5 C-13.3 21.75 -13.3 21.75 -15 22 C-15.33 22.66 -15.66 23.32 -16 24 C-17.75 24.68 -17.75 24.68 -20 25.31 C-25.58 27.07 -31.46 29.43 -35.63 33.66 C-37 35 -37 35 -39 35 C-39.34 35.93 -39.34 35.93 -39.69 36.88 C-41.38 39.61 -42.99 40.05 -46 41 C-44.73 34.76 -41.33 32.28 -36.5 28.62 C-35.47 27.81 -35.47 27.81 -34.41 26.97 C-29.3 23 -29.3 23 -27 23 C-26.67 22.01 -26.34 21.02 -26 20 C-25.01 19.67 -24.02 19.34 -23 19 C-21.32 17.35 -19.66 15.68 -18 14 C-16.05 12.47 -14.07 10.97 -12.06 9.5 C-7.93 6.45 -3.9 3.35 0 0 Z " fill="#3177B6" transform="translate(636,419)"/>
<path d="M0 0 C0.66 0.33 1.32 0.66 2 1 C2.03 3.79 2.05 6.58 2.06 9.38 C2.07 10.17 2.08 10.96 2.09 11.78 C2.11 17.77 2.11 17.77 1 20 C-1.72 20.85 -1.72 20.85 -5.06 21.62 C-6.17 21.89 -7.27 22.15 -8.41 22.41 C-9.26 22.61 -10.12 22.8 -11 23 C-11 23.33 -11 23.66 -11 24 C-12.09 23.98 -13.19 23.96 -14.31 23.94 C-17.94 23.81 -17.94 23.81 -21 25 C-23.33 25.04 -25.67 25.04 -28 25 C-28 24.67 -28 24.34 -28 24 C-26.74 23.75 -25.48 23.5 -24.19 23.25 C-20.35 22.31 -19.24 21.26 -17 18 C-13.81 16.75 -13.81 16.75 -11 16 C-11 15.01 -11 14.02 -11 13 C-9.5 10.81 -9.5 10.81 -8 9 C-8.66 9 -9.32 9 -10 9 C-10.33 7.35 -10.66 5.7 -11 4 C-10.06 3.69 -10.06 3.69 -9.1 3.38 C-8.28 3.11 -7.47 2.84 -6.62 2.56 C-5.81 2.3 -5 2.03 -4.16 1.75 C-1.99 1.05 -1.99 1.05 0 0 Z M-17 20 C-16.67 20.66 -16.34 21.32 -16 22 C-15.67 21.34 -15.34 20.68 -15 20 C-15.66 20 -16.32 20 -17 20 Z " fill="#3277B4" transform="translate(803,586)"/>
<path d="M0 0 C0.99 0.5 0.99 0.5 2 1 C2 1.61 2.01 2.22 2.01 2.85 C2.12 17.73 2.23 32.62 2.34 47.5 C2.39 54.7 2.45 61.9 2.5 69.1 C2.54 75.38 2.59 81.66 2.64 87.94 C2.66 91.26 2.69 94.58 2.71 97.9 C2.8 111.3 2.9 124.64 4 138 C2.68 138 1.36 138 0 138 C0 92.46 0 46.92 0 0 Z " fill="#01101C" transform="translate(474,465)"/>
<path d="M0 0 C6.61 -0.25 11.99 0.51 18.31 2.38 C25.5 4.39 32.59 6.01 40 7 C40 7.66 40 8.32 40 9 C40.89 9.05 41.78 9.1 42.7 9.15 C43.87 9.22 45.04 9.3 46.25 9.38 C47.41 9.44 48.57 9.51 49.77 9.59 C55.08 10.27 57.93 12.61 62 16 C59.96 15.88 57.92 15.76 55.88 15.62 C54.74 15.56 53.6 15.49 52.43 15.41 C49.04 15 46.21 14.14 43 13 C41.85 12.83 40.69 12.67 39.5 12.5 C36.08 12.01 33.27 11.11 30 10 C27.3 9.16 24.59 8.36 21.88 7.56 C21.13 7.34 20.39 7.12 19.63 6.9 C14.17 5.3 8.68 3.91 3.12 2.68 C2.07 2.34 2.07 2.34 1 2 C0.67 1.34 0.34 0.68 0 0 Z " fill="#5EA0D1" transform="translate(780,278)"/>
<path d="M0 0 C0.33 0.66 0.66 1.32 1 2 C1.99 2.33 2.98 2.66 4 3 C0.81 5.84 -0.85 6 -5 6 C-7.04 7.36 -7.04 7.36 -9 9 C-10.65 9.71 -12.31 10.39 -14 11 C-13.34 11.33 -12.68 11.66 -12 12 C-12.33 13.32 -12.66 14.64 -13 16 C-12.34 16.33 -11.68 16.66 -11 17 C-11 17.99 -11 18.98 -11 20 C-16.81 19 -19.44 14.33 -23 10 C-20.58 7.13 -18.48 6.36 -14.88 5.44 C-12.25 4.8 -12.25 4.8 -10 4 C-9.67 3.34 -9.34 2.68 -9 2 C-8.16 2.34 -8.16 2.34 -7.31 2.69 C-4.08 3.12 -2.61 1.81 0 0 Z " fill="#5191C0" transform="translate(412,296)"/>
<path d="M0 0 C0.7 0.1 1.4 0.19 2.12 0.29 C9.49 1.4 16.61 3.32 23.75 5.44 C23.75 6.43 23.75 7.42 23.75 8.44 C11.85 7.76 11.85 7.76 7.31 6.44 C1.58 4.83 -4.32 4.75 -10.25 4.44 C-10.25 2.44 -10.25 2.44 -9.2 0.78 C-6.21 -1.28 -3.41 -0.53 0 0 Z " fill="#094275" transform="translate(731.25,263.5625)"/>
<path d="M0 0 C6.58 -0.31 12.16 0.8 18.5 2.5 C19.42 2.74 20.34 2.98 21.28 3.22 C23.52 3.81 25.76 4.4 28 5 C28 5.66 28 6.32 28 7 C28.99 7 29.98 7 31 7 C31 7.99 31 8.98 31 10 C30.26 9.81 29.52 9.61 28.76 9.41 C23.61 8.09 18.5 6.87 13.25 6 C8.54 5.19 4.41 3.83 0 2 C0 1.34 0 0.68 0 0 Z " fill="#2C6DA3" transform="translate(844,294)"/>
<path d="M0 0 C0.33 0 0.66 0 1 0 C1.18 12.09 1.34 24.18 1.49 36.27 C1.57 41.89 1.64 47.5 1.72 53.12 C1.8 58.53 1.87 63.94 1.94 69.36 C1.96 71.43 1.99 73.5 2.03 75.57 C2.07 78.46 2.11 81.35 2.14 84.24 C2.16 85.53 2.16 85.53 2.19 86.85 C2.2 88.9 2.11 90.95 2 93 C1.01 93.99 1.01 93.99 0 95 C-0.82 89.31 -1.12 83.85 -1.02 78.11 C-1.01 77.26 -1 76.41 -0.99 75.53 C-0.96 72.75 -0.92 69.97 -0.88 67.19 C-0.85 65.25 -0.83 63.31 -0.81 61.37 C-0.74 56.29 -0.68 51.2 -0.61 46.12 C-0.53 40.93 -0.47 35.73 -0.4 30.54 C-0.28 20.36 -0.14 10.18 0 0 Z " fill="#81C0E8" transform="translate(477,496)"/>
<path d="M0 0 C5.97 0.47 11.69 1.49 17.5 2.89 C18.18 3.06 18.87 3.22 19.57 3.38 C23.34 4.34 26.15 5.42 29.06 8.02 C28.73 8.68 28.4 9.34 28.06 10.02 C24.12 9.07 20.19 8.11 16.26 7.14 C14.92 6.81 13.59 6.48 12.25 6.16 C10.32 5.7 8.4 5.22 6.48 4.75 C5.32 4.46 4.16 4.18 2.97 3.89 C0.06 3.02 0.06 3.02 -2.94 1.02 C-1.94 0.02 -1.94 0.02 0 0 Z " fill="#549CD3" transform="translate(675.94140625,338.98046875)"/>
<path d="M0 0 C-0.66 1.32 -1.32 2.64 -2 4 C-3.65 4 -5.3 4 -7 4 C-7 4.99 -7 5.98 -7 7 C-5.02 7 -3.04 7 -1 7 C-1 7.33 -1 7.66 -1 8 C-1.78 8.05 -2.56 8.1 -3.37 8.15 C-4.38 8.22 -5.39 8.3 -6.44 8.38 C-7.45 8.44 -8.46 8.51 -9.5 8.59 C-10.32 8.72 -11.15 8.86 -12 9 C-12.33 9.66 -12.66 10.32 -13 11 C-15.65 11.59 -18.29 11.74 -21 12 C-21 11.34 -21 10.68 -21 10 C-21.99 9.67 -22.98 9.34 -24 9 C-23.34 8.34 -22.68 7.68 -22 7 C-21.34 7 -20.68 7 -20 7 C-15.54 5.44 -11.21 3.75 -7.19 1.25 C-4.61 -0.23 -2.93 -0.25 0 0 Z " fill="#3177B3" transform="translate(696,627)"/>
<path d="M0 0 C0.33 0 0.66 0 1 0 C0.67 20.79 0.34 41.58 0 63 C-0.66 62.67 -1.32 62.34 -2 62 C-2.41 59.68 -2.74 57.34 -3 55 C-2.34 55 -1.68 55 -1 55 C-1.6 44.89 -1.6 44.89 -2.56 34.81 C-3 31 -3 31 -3 27 C-2.34 27 -1.68 27 -1 27 C-1.01 26.25 -1.01 25.51 -1.02 24.74 C-1.04 21.37 -1.05 18 -1.06 14.62 C-1.07 13.45 -1.08 12.27 -1.09 11.06 C-1.09 9.94 -1.09 8.82 -1.1 7.66 C-1.1 6.63 -1.11 5.59 -1.11 4.52 C-1 2 -1 2 0 0 Z " fill="#82C1E9" transform="translate(808,469)"/>
<path d="M0 0 C3 1 3 1 4 2 C6.16 2.49 8.33 2.94 10.5 3.38 C16.19 4.56 21.54 6.02 27 8 C27 8.66 27 9.32 27 10 C22.03 11.21 18.3 10.59 13.5 9.12 C9.02 7.81 4.63 6.67 0 6 C-1.12 2.25 -1.12 2.25 0 0 Z M13 7 C13 7.33 13 7.66 13 8 C14.65 8 16.3 8 18 8 C18 7.67 18 7.34 18 7 C16.35 7 14.7 7 13 7 Z " fill="#2D6CA1" transform="translate(546,619)"/>
<path d="M0 0 C3.9 3.29 3.9 3.29 4.38 6.62 C4 9 4 9 2 11 C-0.96 10.77 -2.55 10.39 -4.81 8.44 C-5.2 7.96 -5.6 7.49 -6 7 C-4.52 2.32 -4.52 2.32 -1.88 0.69 C-1.26 0.46 -0.64 0.23 0 0 Z " fill="#3278B6" transform="translate(508,542)"/>
<path d="M0 0 C1.79 0.02 1.79 0.02 3.62 0.04 C5.42 0.05 5.42 0.05 7.25 0.06 C8.18 0.07 9.1 0.09 10.06 0.1 C9.73 1.09 9.4 2.08 9.06 3.1 C1.79 5.94 -6.21 6.66 -13.94 7.1 C-13.28 6.77 -12.62 6.44 -11.94 6.1 C-11.61 5.11 -11.28 4.12 -10.94 3.1 C-8.63 2.36 -6.3 1.69 -3.94 1.1 C-2.94 0.1 -2.94 0.1 0 0 Z " fill="#4488BF" transform="translate(452.94140625,286.90234375)"/>
<path d="M0 0 C3.88 1.88 3.88 1.88 5 3 C5.19 5.94 5.19 5.94 5 9 C4.34 9.66 3.68 10.32 3 11 C0.38 10.62 0.38 10.62 -2 10 C-2.66 8.02 -3.32 6.04 -4 4 C-2.68 2.68 -1.36 1.36 0 0 Z " fill="#3278B6" transform="translate(590,563)"/>
<path d="M0 0 C4.06 0.52 6.14 1.6 9.12 4.38 C9.79 4.98 10.45 5.59 11.13 6.21 C12.78 7.79 14.4 9.38 16 11 C15.67 11.66 15.34 12.32 15 13 C12.03 13 9.06 13 6 13 C5.67 12.34 5.34 11.68 5 11 C5.66 10.34 6.32 9.68 7 9 C6.22 8.26 5.43 7.51 4.62 6.75 C2.43 4.46 1.17 2.88 0 0 Z " fill="#5080A2" transform="translate(830,394)"/>
<path d="M0 0 C5.96 -0.34 10.6 0.64 16.3 2.33 C19.99 3.25 23.22 3.21 27 3 C27 3.33 27 3.66 27 4 C24.69 4.33 22.38 4.66 20 5 C19.67 5.99 19.34 6.98 19 8 C12.33 6 5.67 4 -1 2 C-0.67 1.34 -0.34 0.68 0 0 Z " fill="#2A6BA3" transform="translate(759,272)"/>
<path d="M0 0 C0.66 0.33 1.32 0.66 2 1 C-11.63 12.71 -11.63 12.71 -18 17 C-18.66 16.67 -19.32 16.34 -20 16 C-19.2 15.44 -18.39 14.89 -17.56 14.31 C-14.76 11.78 -14.31 10.67 -14 7 C-12.55 6.6 -12.55 6.6 -11.06 6.19 C-10.05 5.8 -9.04 5.4 -8 5 C-7.67 4.01 -7.34 3.02 -7 2 C-4 1 -4 1 -1 1 C-0.67 0.67 -0.34 0.34 0 0 Z " fill="#3177B6" transform="translate(614,474)"/>
<path d="M0 0 C-1.49 1.49 -1.49 1.49 -3 3 C-2.34 3.33 -1.68 3.66 -1 4 C-1.33 5.32 -1.66 6.64 -2 8 C-1.34 8.33 -0.68 8.66 0 9 C0 9.99 0 10.98 0 12 C-3.35 11.42 -4.79 10.56 -7 8 C-7.43 7.51 -7.86 7.01 -8.3 6.5 C-12 2.17 -12 2.17 -12 1 C-7.95 0.02 -4.16 -0.08 0 0 Z " fill="#1D4262" transform="translate(401,304)"/>
<path d="M0 0 C2.08 -0.05 4.17 -0.09 6.25 -0.12 C7.99 -0.16 7.99 -0.16 9.77 -0.2 C15.17 0.13 17.91 2.59 22 6 C14.14 5.65 7.35 4.87 0 2 C0 1.34 0 0.68 0 0 Z " fill="#28699F" transform="translate(820,288)"/>
<path d="M0 0 C3 0 3 0 5.25 2.12 C6.16 3.07 7.07 4.02 8 5 C9.22 6.01 10.45 7.01 11.69 8 C14.53 10.39 16.03 12.32 17 16 C10.71 14.39 7.77 11.23 3.81 6.25 C2.2 3.93 2.2 3.93 0 3 C0 2.01 0 1.02 0 0 Z " fill="#0F2333" transform="translate(812,378)"/>
<path d="M0 0 C2.45 0.86 4.13 2.11 6.12 3.75 C5.79 5.07 5.47 6.39 5.12 7.75 C-1.29 8.11 -1.29 8.11 -3.88 6.5 C-4.88 4.75 -4.88 4.75 -4.69 2.62 C-3.6 0.11 -2.71 -0.36 0 0 Z " fill="#3278B6" transform="translate(674.875,360.25)"/>
<path d="M0 0 C0.68 0.01 1.36 0.01 2.06 0.02 C4 0.19 4 0.19 7 1.19 C8.3 1.43 8.3 1.43 9.62 1.69 C12 2.19 12 2.19 13 3.19 C13.97 3.33 14.94 3.48 15.94 3.62 C19 4.19 19 4.19 21 6.19 C20.01 6.85 19.02 7.51 18 8.19 C17.34 7.53 16.68 6.87 16 6.19 C13.99 5.76 11.97 5.41 9.94 5.12 C4.1 4.28 4.1 4.28 3 3.19 C1.32 2.95 -0.37 2.77 -2.06 2.62 C-3.44 2.5 -3.44 2.5 -4.85 2.37 C-5.91 2.28 -5.91 2.28 -7 2.19 C-3.97 0.17 -3.39 -0.07 0 0 Z " fill="#0B477C" transform="translate(545,553.8125)"/>
<path d="M0 0 C2.15 0.14 4.29 0.29 6.44 0.44 C7.63 0.52 8.83 0.6 10.06 0.68 C13 1 13 1 14 2 C15.68 2.39 17.37 2.74 19.06 3.06 C19.98 3.24 20.9 3.42 21.85 3.6 C22.56 3.73 23.27 3.86 24 4 C24 4.66 24 5.32 24 6 C22.08 6.05 20.17 6.09 18.25 6.12 C16.65 6.16 16.65 6.16 15.02 6.2 C12 6 10.58 5.46 8 4 C6.59 3.58 5.18 3.21 3.75 2.88 C2.51 2.59 1.27 2.3 0 2 C0 1.34 0 0.68 0 0 Z " fill="#3A7EB6" transform="translate(426,451)"/>
<path d="M0 0 C1.32 0 2.64 0 4 0 C4 0.66 4 1.32 4 2 C4.87 2.34 4.87 2.34 5.75 2.69 C9.56 4.91 11.62 7.86 13 12 C10.62 13.56 10.62 13.56 8 15 C7.34 14.67 6.68 14.34 6 14 C6.99 12.68 7.98 11.36 9 10 C7.61 8.92 7.61 8.92 6.19 7.81 C3.41 5.52 1.66 3.23 0 0 Z " fill="#133149" transform="translate(876,430)"/>
<path d="M0 0 C2.31 0 4.62 0 7 0 C7 0.66 7 1.32 7 2 C7.99 2.33 8.98 2.66 10 3 C9.03 3.29 8.06 3.58 7.06 3.88 C3.89 4.64 3.89 4.64 3 7 C-0.3 6.67 -3.6 6.34 -7 6 C-7 5.34 -7 4.68 -7 4 C-6.03 3.71 -5.06 3.42 -4.06 3.12 C-0.89 2.36 -0.89 2.36 0 0 Z " fill="#1F588A" transform="translate(696,627)"/>
<path d="M0 0 C0.66 0 1.32 0 2 0 C2.33 5.28 2.66 10.56 3 16 C1.68 16 0.36 16 -1 16 C-1.03 13.52 -1.05 11.04 -1.06 8.56 C-1.08 7.5 -1.08 7.5 -1.09 6.42 C-1.1 4.61 -1.05 2.81 -1 1 C-0.67 0.67 -0.34 0.34 0 0 Z " fill="#083D6C" transform="translate(475,587)"/>
<path d="M0 0 C2.31 0.33 4.62 0.66 7 1 C7.66 2.65 8.32 4.3 9 6 C2.38 7.25 2.38 7.25 -1 5 C-0.67 3.35 -0.34 1.7 0 0 Z " fill="#2477BD" transform="translate(769,375)"/>
<path d="M0 0 C1.94 0.31 3.88 0.62 5.81 0.94 C6.89 1.11 7.97 1.29 9.08 1.46 C12 2 12 2 15 3 C15 3.99 15 4.98 15 6 C10.71 5.67 6.42 5.34 2 5 C2 3.68 2 2.36 2 1 C1.34 0.67 0.68 0.34 0 0 Z " fill="#3C7DB2" transform="translate(740,266)"/>
<path d="M0 0 C0.66 0.66 1.32 1.32 2 2 C-8.35 12.68 -8.35 12.68 -13 15 C-13 13.68 -13 12.36 -13 11 C-7.77 6 -7.77 6 -5 6 C-5 5.34 -5 4.68 -5 4 C-3.37 2.62 -1.71 1.28 0 0 Z " fill="#296BA3" transform="translate(680,298)"/>
<path d="M0 0 C0.9 0.31 0.9 0.31 1.81 0.62 C0.81 3.62 0.81 3.62 -1.19 4.62 C-3.19 4.66 -5.19 4.67 -7.19 4.62 C-7.19 5.28 -7.19 5.95 -7.19 6.62 C-5.87 6.96 -4.55 7.28 -3.19 7.62 C-5.56 8.25 -5.56 8.25 -8.19 8.62 C-9.52 7.29 -10.85 5.96 -12.19 4.62 C-10.46 3.91 -8.74 3.19 -7.01 2.48 C-1.25 -0.21 -1.25 -0.21 0 0 Z " fill="#377CB8" transform="translate(782.1875,605.375)"/>
<path d="M0 0 C2 0.81 2 0.81 3.25 2.88 C3.5 3.51 3.75 4.15 4 4.81 C2.75 6.38 2.75 6.38 1 7.81 C-1.19 7.5 -1.19 7.5 -3 6.81 C-3.33 4.83 -3.66 2.85 -4 0.81 C-2 -0.19 -2 -0.19 0 0 Z " fill="#3278B6" transform="translate(685,498.1875)"/>
<path d="M0 0 C0.33 0.99 0.66 1.98 1 3 C3.64 2.67 6.28 2.34 9 2 C9.33 2.66 9.66 3.32 10 4 C3.92 6.17 -0.64 7.52 -7 6 C-6 4 -6 4 -2.94 2.88 C-1.48 2.44 -1.48 2.44 0 2 C0 1.34 0 0.68 0 0 Z " fill="#226297" transform="translate(425,292)"/>
<path d="M0 0 C3.96 0 7.92 0 12 0 C12 0.66 12 1.32 12 2 C13.65 2 15.3 2 17 2 C17 2.33 17 2.66 17 3 C15.35 3 13.7 3 12 3 C12 3.66 12 4.32 12 5 C8.98 4.41 5.98 3.77 3 3 C3 2.34 3 1.68 3 1 C2.01 0.67 1.02 0.34 0 0 Z " fill="#4589C0" transform="translate(808,285)"/>
<path d="M0 0 C-2.93 2.93 -6.43 3.02 -10.38 3.69 C-11.53 3.9 -11.53 3.9 -12.7 4.12 C-13.82 4.31 -13.82 4.31 -14.96 4.51 C-15.98 4.69 -15.98 4.69 -17.02 4.87 C-19.22 5.01 -20.9 4.64 -23 4 C-18.82 0.66 -15.41 0.76 -10.3 0.99 C-6.76 1 -3.65 -0.1 0 0 Z " fill="#124F85" transform="translate(554,265)"/>
<path d="M0 0 C-0.33 0.66 -0.66 1.32 -1 2 C-3.62 2.85 -3.62 2.85 -6.88 3.62 C-8.48 4.02 -8.48 4.02 -10.12 4.41 C-13 5 -13 5 -16 5 C-16 4.34 -16 3.68 -16 3 C-13.9 2.3 -11.79 1.62 -9.69 0.94 C-8.52 0.55 -7.34 0.17 -6.14 -0.22 C-3 -1 -3 -1 0 0 Z " fill="#2B70AD" transform="translate(792,469)"/>
<path d="M0 0 C0.33 0.99 0.66 1.98 1 3 C1.99 3.33 2.98 3.66 4 4 C1 6 1 6 -1 6 C-1 5.01 -1 4.02 -1 3 C-1.58 3.16 -2.16 3.31 -2.76 3.47 C-7.53 4.66 -11.13 5.25 -16 4 C-16 3.67 -16 3.34 -16 3 C-10.72 2.01 -5.44 1.02 0 0 Z " fill="#7EBCE3" transform="translate(555,262)"/>
<path d="M0 0 C0.66 0.33 1.32 0.66 2 1 C-3 5 -8 9 -13 13 C-13.66 12.67 -14.32 12.34 -15 12 C-10.57 6.3 -6.78 2.64 0 0 Z " fill="#3278B6" transform="translate(633,459)"/>
<path d="M0 0 C0 2.31 0 4.62 0 7 C-2.8 6.61 -3.82 6.2 -5.75 4.06 C-7 2 -7 2 -7 0 C-3.87 -1.04 -3.01 -0.93 0 0 Z " fill="#3177B6" transform="translate(803,567)"/>
<path d="M0 0 C2.97 0.33 5.94 0.66 9 1 C7.51 3.48 7.51 3.48 6 6 C5.67 5.34 5.34 4.68 5 4 C3.86 4.53 3.86 4.53 2.69 5.06 C0 6 0 6 -3 5 C-2.01 3.35 -1.02 1.7 0 0 Z " fill="#2E72AB" transform="translate(803,462)"/>
<path d="M0 0 C0.47 0.43 0.94 0.87 1.43 1.31 C2.36 2.15 2.36 2.15 3.31 3 C3.93 3.56 4.54 4.11 5.18 4.69 C7.03 6.29 7.03 6.29 10 6 C10 6.99 10 7.98 10 9 C8.31 9.81 8.31 9.81 6 10 C3.38 7.62 3.38 7.62 1 5 C0.34 4.67 -0.32 4.34 -1 4 C-0.67 2.68 -0.34 1.36 0 0 Z " fill="#0E3B63" transform="translate(408,319)"/>
<path d="M0 0 C-0.35 0.62 -0.7 1.24 -1.06 1.88 C-1.37 2.58 -1.68 3.28 -2 4 C-1.67 4.66 -1.34 5.32 -1 6 C-3.64 6.33 -6.28 6.66 -9 7 C-9 6.34 -9 5.68 -9 5 C-9.99 4.67 -10.98 4.34 -12 4 C-11.34 3.34 -10.68 2.68 -10 2 C-9.34 2 -8.68 2 -8 2 C-7.01 1.67 -6.02 1.34 -5 1 C-2 0 -2 0 0 0 Z " fill="#4085BF" transform="translate(684,632)"/>
<path d="M0 0 C0.66 0.33 1.32 0.66 2 1 C1.67 1.66 1.34 2.32 1 3 C-4.56 4.73 -10.21 5.25 -16 5 C-14.81 3.5 -14.81 3.5 -13 2 C-10.38 1.88 -10.38 1.88 -8 2 C-7.67 1.67 -7.34 1.34 -7 1 C-4.66 1.29 -2.33 1.62 0 2 C0 1.34 0 0.68 0 0 Z " fill="#0A477D" transform="translate(803,603)"/>
<path d="M0 0 C3.17 0.17 3.17 0.17 6 0 C6.33 0.66 6.66 1.32 7 2 C1.62 2.85 -2.65 3 -8 2 C-8.33 1.01 -8.66 0.02 -9 -1 C-5.04 -2.1 -3.57 -1.84 0 0 Z " fill="#3275AE" transform="translate(582,630)"/>
<path d="M0 0 C4.19 0.6 8.01 1.57 12 3 C12 3.66 12 4.32 12 5 C6.66 6.34 3.16 5.51 -2 4 C-1.01 3.34 -0.02 2.68 1 2 C0.67 1.34 0.34 0.68 0 0 Z " fill="#3C7EB3" transform="translate(561,624)"/>
<path d="M0 0 C1.26 -0.02 2.52 -0.04 3.81 -0.06 C4.52 -0.07 5.23 -0.09 5.96 -0.1 C8 0 8 0 11 1 C11 2.32 11 3.64 11 5 C7.7 4.34 4.4 3.68 1 3 C0.67 2.01 0.34 1.02 0 0 Z " fill="#25669D" transform="translate(844,294)"/>
<path d="M0 0 C5.28 0.66 10.56 1.32 16 2 C16 2.33 16 2.66 16 3 C7.59 3.5 7.59 3.5 -1 4 C-0.67 2.68 -0.34 1.36 0 0 Z " fill="#75B4DD" transform="translate(724,263)"/>
<path d="M0 0 C0.33 0.66 0.66 1.32 1 2 C-3.12 3.63 -5.71 4.26 -10 3 C-9.67 2.01 -9.34 1.02 -9 0 C-5.88 -1.56 -3.33 -0.67 0 0 Z " fill="#3278B6" transform="translate(763,603)"/>
<path d="M0 0 C2.06 0.19 2.06 0.19 4 1 C4.33 1.99 4.66 2.98 5 4 C4.01 5.49 4.01 5.49 3 7 C1.68 6.67 0.36 6.34 -1 6 C-1.62 4.12 -1.62 4.12 -2 2 C-1.34 1.34 -0.68 0.68 0 0 Z " fill="#3278B6" transform="translate(685,536)"/>
<path d="M0 0 C3.75 0.51 5.51 1.16 8 4 C8.66 4.33 9.32 4.66 10 5 C10.62 7.56 10.62 7.56 11 10 C7.04 8.32 4.16 5.88 1 3 C0.67 2.01 0.34 1.02 0 0 Z " fill="#0D2131" transform="translate(846,407)"/>
<path d="M0 0 C4.58 0.49 4.58 0.49 6.62 2.94 C7.08 3.62 7.53 4.3 8 5 C8.99 5.66 9.98 6.32 11 7 C11 7.66 11 8.32 11 9 C6.42 8.51 6.42 8.51 4.38 6.06 C3.69 5.04 3.69 5.04 3 4 C2.01 3.34 1.02 2.68 0 2 C0 1.34 0 0.68 0 0 Z " fill="#03101C" transform="translate(619,317)"/>
<path d="M0 0 C2.97 0 5.94 0 9 0 C9.33 0.66 9.66 1.32 10 2 C12.31 2.73 14.65 3.4 17 4 C16.67 4.66 16.34 5.32 16 6 C13.52 5.38 11.04 4.76 8.56 4.12 C7.86 3.95 7.15 3.78 6.42 3.6 C4.6 3.13 2.8 2.57 1 2 C0.67 1.34 0.34 0.68 0 0 Z " fill="#245A89" transform="translate(780,278)"/>
<path d="M0 0 C0.99 0.33 1.98 0.66 3 1 C-0.1 4.99 -2.54 7.52 -7 10 C-7.33 10.66 -7.66 11.32 -8 12 C-8.66 11.67 -9.32 11.34 -10 11 C-8.85 7.56 -7.73 6.67 -5 4.38 C-4.28 3.76 -3.56 3.15 -2.81 2.52 C-2.21 2.02 -1.62 1.52 -1 1 C-0.67 0.67 -0.34 0.34 0 0 Z " fill="#3275AD" transform="translate(433,404)"/>
<path d="M0 0 C7.48 6.15 7.48 6.15 10 10 C7 10 7 10 5 9 C5 8.34 5 7.68 5 7 C4.2 6.73 3.39 6.46 2.56 6.19 C1.72 5.8 0.87 5.4 0 5 C-0.33 4.01 -0.66 3.02 -1 2 C-0.67 1.34 -0.34 0.68 0 0 Z " fill="#0F2F4A" transform="translate(423,331)"/>
<path d="M0 0 C0.41 0.45 0.83 0.91 1.25 1.38 C3.06 3.06 4.75 3.99 7 5 C4.69 5.33 2.38 5.66 0 6 C-0.33 7.32 -0.66 8.64 -1 10 C-1.66 7.69 -2.32 5.38 -3 3 C-2.01 2.01 -1.02 1.02 0 0 Z " fill="#82C1E9" transform="translate(533,552)"/>
<path d="M0 0 C1.98 0.5 1.98 0.5 4 1 C4.98 4.05 4.98 5.95 4 9 C2.68 8.67 1.36 8.34 0 8 C-0.33 6.68 -0.66 5.36 -1 4 C-0.01 3.34 0.98 2.68 2 2 C1.34 1.34 0.68 0.68 0 0 Z " fill="#337AB8" transform="translate(800,544)"/>
<path d="M0 0 C3.65 1.25 4.78 1.67 7 5 C7.99 5.33 8.98 5.66 10 6 C10.69 8.06 10.69 8.06 11 10 C9.68 9.67 8.36 9.34 7 9 C7 8.34 7 7.68 7 7 C6.22 6.77 5.43 6.55 4.62 6.31 C2 5 2 5 0.69 2.38 C0.46 1.59 0.23 0.81 0 0 Z " fill="#134571" transform="translate(440,347)"/>
<path d="M0 0 C3.37 0.55 5.08 1.05 8 3 C8.33 3.99 8.66 4.98 9 6 C9.99 6.66 10.98 7.32 12 8 C12 8.66 12 9.32 12 10 C8.79 8.56 6.38 6.77 3.75 4.44 C3.04 3.82 2.34 3.2 1.61 2.56 C1.08 2.04 0.55 1.53 0 1 C0 0.67 0 0.34 0 0 Z " fill="#0A243B" transform="translate(587,292)"/>
<path d="M0 0 C0.33 0.66 0.66 1.32 1 2 C-2.21 3.91 -4.54 4.22 -8.25 4.12 C-9.14 4.11 -10.03 4.09 -10.95 4.07 C-11.97 4.04 -11.97 4.04 -13 4 C-12.34 3.01 -11.68 2.02 -11 1 C-8.4 0.49 -8.4 0.49 -5.38 0.31 C-3.87 0.21 -3.87 0.21 -2.34 0.11 C-1.57 0.08 -0.79 0.04 0 0 Z " fill="#3A7EB8" transform="translate(526,270)"/>
<path d="M0 0 C0.78 0.19 1.57 0.37 2.38 0.56 C4.97 1.26 4.97 1.26 7 0 C8.02 0.98 9.02 1.98 10 3 C10 3.33 10 3.66 10 4 C14.45 4.99 14.45 4.99 19 6 C14.76 7.41 11 6.82 6.88 5.12 C6.26 4.75 5.64 4.38 5 4 C4.09 3.48 3.19 2.97 2.25 2.44 C1.51 1.96 0.76 1.49 0 1 C0 0.67 0 0.34 0 0 Z " fill="#64A6D6" transform="translate(474,603)"/>
<path d="M0 0 C3.33 -0.37 4.63 -0.27 7.38 1.75 C9 4 9 4 8.75 6.25 C8.5 6.83 8.25 7.4 8 8 C6.68 7.67 5.36 7.34 4 7 C3.9 6.36 3.79 5.72 3.69 5.06 C3.46 4.38 3.23 3.7 3 3 C2.01 2.67 1.02 2.34 0 2 C0 1.34 0 0.68 0 0 Z " fill="#4387C0" transform="translate(826,395)"/>
<path d="M0 0 C-0.33 0.99 -0.66 1.98 -1 3 C-6.28 2.34 -11.56 1.68 -17 1 C-11.76 -2.5 -5.99 -0.98 0 0 Z " fill="#194C77" transform="translate(531,615)"/>
<path d="M0 0 C0.99 0 1.98 0 3 0 C3 3.63 3 7.26 3 11 C2.34 10.67 1.68 10.34 1 10 C0.38 6.94 0.38 6.94 0 4 C-0.33 5.65 -0.66 7.3 -1 9 C-1.33 9 -1.66 9 -2 9 C-2.12 5.62 -2.12 5.62 -2 2 C-1.34 1.34 -0.68 0.68 0 0 Z " fill="#3278B6" transform="translate(800,497)"/>
<path d="M0 0 C0 0.33 0 0.66 0 1 C-2.98 1.34 -2.98 1.34 -5.96 1.68 C-8.19 1.97 -8.19 1.97 -11 3 C-13.01 2.72 -15.01 2.4 -17 2 C-17 1.34 -17 0.68 -17 0 C-11.07 -0.97 -5.94 -0.89 0 0 Z " fill="#3575A8" transform="translate(838,458)"/>
<path d="M0 0 C0.33 0.66 0.66 1.32 1 2 C4.3 1.34 7.6 0.68 11 0 C10.34 0.66 9.68 1.32 9 2 C9.33 2.66 9.66 3.32 10 4 C5.71 4 1.42 4 -3 4 C-3 3.34 -3 2.68 -3 2 C-2.01 1.34 -1.02 0.68 0 0 Z " fill="#589ACC" transform="translate(524,267)"/>
<path d="M0 0 C2.31 0.33 4.62 0.66 7 1 C7 1.66 7 2.32 7 3 C7.99 3 8.98 3 10 3 C10 3.99 10 4.98 10 6 C6.7 5.34 3.4 4.68 0 4 C0.66 3.67 1.32 3.34 2 3 C2 2.34 2 1.68 2 1 C1.34 0.67 0.68 0.34 0 0 Z " fill="#4382B6" transform="translate(865,298)"/>
<path d="M0 0 C0.33 0.66 0.66 1.32 1 2 C1.99 2.33 2.98 2.66 4 3 C1.29 5.6 0.11 5.99 -3.75 6.19 C-4.82 6.13 -5.89 6.06 -7 6 C-4.89 2.83 -3.26 1.8 0 0 Z " fill="#3D80B6" transform="translate(498,274)"/>
<path d="M0 0 C0.33 0 0.66 0 1 0 C1.33 6.6 1.66 13.2 2 20 C-1 17 -1 17 -1.25 15.1 C-1.19 14.4 -1.13 13.71 -1.07 12.99 C-1.02 12.23 -0.96 11.47 -0.91 10.69 C-0.84 9.91 -0.76 9.12 -0.69 8.31 C-0.63 7.52 -0.57 6.72 -0.5 5.9 C-0.35 3.93 -0.18 1.96 0 0 Z " fill="#82C1E9" transform="translate(807,561)"/>
<path d="M0 0 C4.69 3.61 4.69 3.61 6 5 C6 5.99 6 6.98 6 8 C5.01 8 4.02 8 3 8 C2.67 7.34 2.34 6.68 2 6 C1.01 5.67 0.02 5.34 -1 5 C-1.33 4.01 -1.66 3.02 -2 2 C-1.34 1.34 -0.68 0.68 0 0 Z " fill="#2D536F" transform="translate(868,422)"/>
<path d="M0 0 C3 0 3 0 5.62 2.38 C8 5 8 5 9 7 C8.67 7.66 8.34 8.32 8 9 C4.64 7.56 2.37 5.79 0 3 C0 2.01 0 1.02 0 0 Z " fill="#14334C" transform="translate(812,378)"/>
<path d="M0 0 C0.7 0.31 1.4 0.62 2.12 0.94 C5.09 2.03 7.88 2.56 11 3 C11 3.66 11 4.32 11 5 C11.66 5.33 12.32 5.66 13 6 C12 7 12 7 9.44 7.06 C8.23 7.03 8.23 7.03 7 7 C7.99 6.67 8.98 6.34 10 6 C10 5.34 10 4.68 10 4 C8.02 4.33 6.04 4.66 4 5 C2.68 3.35 1.36 1.7 0 0 Z " fill="#7BBBE5" transform="translate(572,282)"/>
<path d="M0 0 C-2.76 1.38 -5.05 1.1 -8.12 1.06 C-9.22 1.05 -10.32 1.04 -11.45 1.04 C-12.71 1.02 -12.71 1.02 -14 1 C-12 -2 -12 -2 -9.81 -2.88 C-5.87 -3.05 -3.53 -1.73 0 0 Z " fill="#073155" transform="translate(647,645)"/>
<path d="M0 0 C0.99 0.33 1.98 0.66 3 1 C3 1.66 3 2.32 3 3 C2.4 3.27 1.8 3.54 1.19 3.81 C-1.04 4.89 -1.04 4.89 -2.62 6.62 C-3.08 7.08 -3.53 7.53 -4 8 C-4.66 8 -5.32 8 -6 8 C-6 7.01 -6 6.02 -6 5 C-3.19 2.25 -3.19 2.25 0 0 Z " fill="#2B689C" transform="translate(711,273)"/>
<path d="M0 0 C4.95 0 9.9 0 15 0 C15.66 1.32 16.32 2.64 17 4 C16.31 3.86 15.61 3.71 14.89 3.57 C11.83 2.97 8.77 2.44 5.69 1.94 C4.62 1.76 3.55 1.58 2.45 1.4 C1.64 1.27 0.83 1.14 0 1 C0 0.67 0 0.34 0 0 Z " fill="#5D9DCB" transform="translate(496,611)"/>
<path d="M0 0 C3.24 0.35 4.62 0.56 6.81 3.06 C7.2 3.7 7.6 4.34 8 5 C7.34 5.66 6.68 6.32 6 7 C1.12 3.38 1.12 3.38 0 0 Z " fill="#04101A" transform="translate(830,394)"/>
<path d="M0 0 C0.33 0.66 0.66 1.32 1 2 C1.99 2.33 2.98 2.66 4 3 C2.25 4.56 2.25 4.56 0 6 C-2.25 5.69 -2.25 5.69 -4 5 C-4 4.01 -4 3.02 -4 2 C-2.68 1.34 -1.36 0.68 0 0 Z " fill="#2F5F86" transform="translate(412,296)"/>
<path d="M0 0 C3.96 0 7.92 0 12 0 C12 0.33 12 0.66 12 1 C9.69 1.33 7.38 1.66 5 2 C4.67 2.99 4.34 3.98 4 5 C2.68 4.67 1.36 4.34 0 4 C0 2.68 0 1.36 0 0 Z " fill="#3B7EB3" transform="translate(774,275)"/>
<path d="M0 0 C0.33 0 0.66 0 1 0 C1 4.95 1 9.9 1 15 C0.67 15 0.34 15 0 15 C0 10.05 0 5.1 0 0 Z " fill="#82C1E9" transform="translate(470,496)"/>
<path d="M0 0 C0 0.99 0 1.98 0 3 C-2.5 5.19 -2.5 5.19 -5 7 C-3.71 4.12 -2.34 2.13 0 0 Z " fill="#0A355C" transform="translate(397,429)"/>
<path d="M0 0 C0 0.99 0 1.98 0 3 C-2.5 5.19 -2.5 5.19 -5 7 C-3.71 4.12 -2.34 2.13 0 0 Z " fill="#223F56" transform="translate(407,422)"/>
<path d="M0 0 C0.66 0.33 1.32 0.66 2 1 C0.35 2.65 -1.3 4.3 -3 6 C-3.66 5.67 -4.32 5.34 -5 5 C-3.35 3.35 -1.7 1.7 0 0 Z " fill="#14538B" transform="translate(654,316)"/>
<path d="M0 0 C0.33 0 0.66 0 1 0 C1 3.3 1 6.6 1 10 C0.67 10 0.34 10 0 10 C0 6.7 0 3.4 0 0 Z " fill="#82C1E9" transform="translate(470,546)"/>
<path d="M0 0 C0.33 0 0.66 0 1 0 C1 3.3 1 6.6 1 10 C0.67 10 0.34 10 0 10 C0 6.7 0 3.4 0 0 Z " fill="#82C1E9" transform="translate(470,524)"/>
<path d="M0 0 C-2.35 1.43 -3.48 2.09 -6.25 1.62 C-6.83 1.42 -7.4 1.21 -8 1 C-5.29 -0.35 -2.99 -0.07 0 0 Z " fill="#82C1E9" transform="translate(853,454)"/>
<path d="M0 0 C0.66 0.33 1.32 0.66 2 1 C0.68 2.32 -0.64 3.64 -2 5 C-2.66 4.67 -3.32 4.34 -4 4 C-2.68 2.68 -1.36 1.36 0 0 Z " fill="#286BA5" transform="translate(421,411)"/>
<path d="M0 0 C0.66 0.33 1.32 0.66 2 1 C1.01 2.32 0.02 3.64 -1 5 C-1.99 4.67 -2.98 4.34 -4 4 C-3.34 4 -2.68 4 -2 4 C-1.34 2.68 -0.68 1.36 0 0 Z " fill="#478ABF" transform="translate(686,290)"/>
<path d="M0 0 C0.33 0 0.66 0 1 0 C1 2.97 1 5.94 1 9 C0.67 9 0.34 9 0 9 C0 6.03 0 3.06 0 0 Z " fill="#82C1E9" transform="translate(470,562)"/>
<path d="M0 0 C0.66 0.33 1.32 0.66 2 1 C0.35 2.32 -1.3 3.64 -3 5 C-1.12 1.12 -1.12 1.12 0 0 Z " fill="#206199" transform="translate(668,305)"/>
<path d="M0 0 C0.99 0.33 1.98 0.66 3 1 C2.67 1.66 2.34 2.32 2 3 C1.01 2.67 0.02 2.34 -1 2 C-0.67 1.34 -0.34 0.68 0 0 Z " fill="#68AAD9" transform="translate(814,366)"/>
<path d="M0 0 C2.31 0 4.62 0 7 0 C7 0.33 7 0.66 7 1 C4.69 1 2.38 1 0 1 C0 0.67 0 0.34 0 0 Z " fill="#82C1E9" transform="translate(647,644)"/>
<path d="M0 0 C1.21 0.03 1.21 0.03 2.44 0.06 C0.56 1.12 0.56 1.12 -1.56 2.06 C-2.22 1.73 -2.88 1.4 -3.56 1.06 C-2.56 0.06 -2.56 0.06 0 0 Z " fill="#76B6E1" transform="translate(764.5625,614.9375)"/>
<path d="M0 0 C0.66 0.33 1.32 0.66 2 1 C0.68 1.99 -0.64 2.98 -2 4 C-1.34 2.68 -0.68 1.36 0 0 Z " fill="#052B4C" transform="translate(444,391)"/>
<path d="M0 0 C0.33 0 0.66 0 1 0 C1 1.98 1 3.96 1 6 C0.67 6 0.34 6 0 6 C0 4.02 0 2.04 0 0 Z " fill="#82C1E9" transform="translate(470,538)"/>
<path d="M0 0 C0.66 0.33 1.32 0.66 2 1 C1.67 1.66 1.34 2.32 1 3 C0.01 2.67 -0.98 2.34 -2 2 C-1.34 2 -0.68 2 0 2 C0 1.34 0 0.68 0 0 Z " fill="#4890C9" transform="translate(438,397)"/>
<path d="M0 0 C0.66 0.33 1.32 0.66 2 1 C1.67 1.66 1.34 2.32 1 3 C0.01 2.67 -0.98 2.34 -2 2 C-1.34 2 -0.68 2 0 2 C0 1.34 0 0.68 0 0 Z " fill="#0A4A83" transform="translate(473,279)"/>
<path d="M0 0 C1.65 0 3.3 0 5 0 C5 0.33 5 0.66 5 1 C3.35 1 1.7 1 0 1 C0 0.67 0 0.34 0 0 Z " fill="#82C1E9" transform="translate(609,640)"/>
<path d="M0 0 C0.33 0 0.66 0 1 0 C1 1.65 1 3.3 1 5 C0.67 5 0.34 5 0 5 C0 3.35 0 1.7 0 0 Z " fill="#82C1E9" transform="translate(470,513)"/>
<path d="M0 0 C1.65 0 3.3 0 5 0 C5 0.33 5 0.66 5 1 C3.35 1 1.7 1 0 1 C0 0.67 0 0.34 0 0 Z " fill="#82C1E9" transform="translate(861,451)"/>
<path d="M0 0 C1.65 0 3.3 0 5 0 C5 0.33 5 0.66 5 1 C3.35 1 1.7 1 0 1 C0 0.67 0 0.34 0 0 Z " fill="#82C1E9" transform="translate(872,448)"/>
<path d="M0 0 C1.65 0 3.3 0 5 0 C5 0.33 5 0.66 5 1 C3.35 1 1.7 1 0 1 C0 0.67 0 0.34 0 0 Z " fill="#3278B6" transform="translate(441,288)"/>
<path d="M0 0 C0.66 0.33 1.32 0.66 2 1 C1.01 1.66 0.02 2.32 -1 3 C-0.67 2.01 -0.34 1.02 0 0 Z " fill="#12538D" transform="translate(690,286)"/>
<path d="M0 0 C0 0.99 0 1.98 0 3 C-0.66 2.67 -1.32 2.34 -2 2 C-1.34 1.34 -0.68 0.68 0 0 Z " fill="#0A4A83" transform="translate(486,276)"/>
<path d="M0 0 C0.66 0.33 1.32 0.66 2 1 C1.67 1.66 1.34 2.32 1 3 C0.34 2.67 -0.32 2.34 -1 2 C-0.67 1.34 -0.34 0.68 0 0 Z " fill="#02101D" transform="translate(719,263)"/>
<path d="M0 0 C4 1 4 1 4 1 Z " fill="#82C1E9" transform="translate(718,627)"/>
<path d="M0 0 C4 1 4 1 4 1 Z " fill="#82C1E9" transform="translate(794,608)"/>
<path d="M0 0 C1 4 1 4 1 4 Z " fill="#82C1E9" transform="translate(470,519)"/>
<path d="M0 0 C1 4 1 4 1 4 Z " fill="#82C1E9" transform="translate(470,479)"/>
<path d="M0 0 C4 1 4 1 4 1 Z " fill="#82C1E9" transform="translate(821,461)"/>
<path d="M0 0 C0.66 0.33 1.32 0.66 2 1 C1.01 1 0.02 1 -1 1 C-0.67 0.67 -0.34 0.34 0 0 Z " fill="#073863" transform="translate(410,419)"/>
<path d="M0 0 C0 3 0 3 0 3 Z " fill="#14558F" transform="translate(413,416)"/>
<path d="M0 0 C0 3 0 3 0 3 Z " fill="#000204" transform="translate(425,407)"/>
<path d="M0 0 C0 3 0 3 0 3 Z " fill="#286CA9" transform="translate(647,323)"/>
<path d="M0 0 C0 3 0 3 0 3 Z " fill="#2F73AB" transform="translate(676,297)"/>
<path d="M0 0 C4 1 4 1 4 1 Z " fill="#3278B6" transform="translate(455,285)"/>
<path d="M0 0 C3 1 3 1 3 1 Z " fill="#82C1E9" transform="translate(642,646)"/>
<path d="M0 0 C3 1 3 1 3 1 Z " fill="#72B4E1" transform="translate(638,646)"/>
<path d="M0 0 C3 1 3 1 3 1 Z " fill="#82C1E9" transform="translate(702,631)"/>
<path d="M0 0 C3 1 3 1 3 1 Z " fill="#82C1E9" transform="translate(706,630)"/>
<path d="M0 0 C3 1 3 1 3 1 Z " fill="#82C1E9" transform="translate(570,630)"/>
<path d="M0 0 C3 1 3 1 3 1 Z " fill="#82C1E9" transform="translate(731,624)"/>
<path d="M0 0 C3 1 3 1 3 1 Z " fill="#82C1E9" transform="translate(521,617)"/>
<path d="M0 0 C3 1 3 1 3 1 Z " fill="#82C1E9" transform="translate(770,614)"/>
<path d="M0 0 C3 1 3 1 3 1 Z " fill="#82C1E9" transform="translate(782,611)"/>
<path d="" fill="#82C1E9" transform="translate(0,0)"/>
<path d="M0 0 C0.33 0.66 0.66 1.32 1 2 C0.34 1.67 -0.32 1.34 -1 1 C-0.67 0.67 -0.34 0.34 0 0 Z " fill="#4890C9" transform="translate(556,574)"/>
<path d="M0 0 C0.33 0.66 0.66 1.32 1 2 C0.34 1.67 -0.32 1.34 -1 1 C-0.67 0.67 -0.34 0.34 0 0 Z " fill="#3278B6" transform="translate(562,571)"/>
<path d="M0 0 C3 1 3 1 3 1 Z " fill="#82C1E9" transform="translate(429,454)"/>
<path d="M0 0 C3 1 3 1 3 1 Z " fill="#82C1E9" transform="translate(867,450)"/>
<path d="M0 0 C0.99 0.5 0.99 0.5 2 1 C1.01 1.5 1.01 1.5 0 2 C0 1.34 0 0.68 0 0 Z " fill="#3D84BF" transform="translate(432,400)"/>
<path d="M0 0 C3 1 3 1 3 1 Z " fill="#67A8D8" transform="translate(641,326)"/>
<path d="M0 0 C0.99 0.5 0.99 0.5 2 1 C1.01 1.5 1.01 1.5 0 2 C0 1.34 0 0.68 0 0 Z " fill="#0A4A83" transform="translate(670,303)"/>
<path d="M0 0 C0.99 0.5 0.99 0.5 2 1 C1.01 1.5 1.01 1.5 0 2 C0 1.34 0 0.68 0 0 Z " fill="#031A2E" transform="translate(672,301)"/>
<path d="M0 0 C3 1 3 1 3 1 Z " fill="#0A4A83" transform="translate(430,291)"/>
<path d="M0 0 C0.99 0.5 0.99 0.5 2 1 C1.01 1.5 1.01 1.5 0 2 C0 1.34 0 0.68 0 0 Z " fill="#0A4A83" transform="translate(451,285)"/>
<path d="M0 0 C0.33 0.66 0.66 1.32 1 2 C0.34 1.67 -0.32 1.34 -1 1 C-0.67 0.67 -0.34 0.34 0 0 Z " fill="#175994" transform="translate(707,272)"/>
<path d="M0 0 C3 1 3 1 3 1 Z " fill="#3074AE" transform="translate(770,272)"/>
<path d="M0 0 C0.99 0.5 0.99 0.5 2 1 C1.01 1.5 1.01 1.5 0 2 C0 1.34 0 0.68 0 0 Z " fill="#3074AE" transform="translate(499,272)"/>
<path d="M0 0 C0.33 0.66 0.66 1.32 1 2 C0.34 1.67 -0.32 1.34 -1 1 C-0.67 0.67 -0.34 0.34 0 0 Z " fill="#38688E" transform="translate(709,270)"/>
<path d="M0 0 C2 1 2 1 2 1 Z " fill="#82C1E9" transform="translate(670,640)"/>
<path d="M0 0 C2 1 2 1 2 1 Z " fill="#82C1E9" transform="translate(684,636)"/>
<path d="M0 0 C2 1 2 1 2 1 Z " fill="#82C1E9" transform="translate(758,617)"/>
<path d="M0 0 C2 1 2 1 2 1 Z " fill="#82C1E9" transform="translate(799,607)"/>
<path d="" fill="#82C1E9" transform="translate(0,0)"/>
<path d="" fill="#82C1E9" transform="translate(0,0)"/>
<path d="" fill="#82C1E9" transform="translate(0,0)"/>
<path d="" fill="#82C1E9" transform="translate(0,0)"/>
<path d="" fill="#82C1E9" transform="translate(0,0)"/>
<path d="M0 0 C2 1 2 1 2 1 Z " fill="#82C1E9" transform="translate(870,449)"/>
<path d="M0 0 C2 1 2 1 2 1 Z " fill="#82C1E9" transform="translate(879,447)"/>
<path d="M0 0 C2 1 2 1 2 1 Z " fill="#82C1E9" transform="translate(884,445)"/>
<path d="M0 0 C2 1 2 1 2 1 Z " fill="#82C1E9" transform="translate(886,444)"/>
<path d="M0 0 C2 1 2 1 2 1 Z " fill="#000204" transform="translate(388,438)"/>
<path d="M0 0 C2 1 2 1 2 1 Z " fill="#0A4A83" transform="translate(427,405)"/>
<path d="" fill="#549CD3" transform="translate(0,0)"/>
<path d="M0 0 C2 1 2 1 2 1 Z " fill="#1E619C" transform="translate(816,365)"/>
<path d="M0 0 C2 1 2 1 2 1 Z " fill="#052643" transform="translate(862,327)"/>
<path d="" fill="#0A4A83" transform="translate(0,0)"/>
<path d="" fill="#3278B6" transform="translate(0,0)"/>
<path d="M0 0 C2 1 2 1 2 1 Z " fill="#0A4A83" transform="translate(479,278)"/>
<path d="M0 0 C2 1 2 1 2 1 Z " fill="#3278B6" transform="translate(491,275)"/>
<path d="M0 0 C2 1 2 1 2 1 Z " fill="#438AC4" transform="translate(710,269)"/>
<path d="" fill="#549CD3" transform="translate(0,0)"/>
<path d="M0 0 C2 1 2 1 2 1 Z " fill="#0A4A83" transform="translate(532,265)"/>
<path d="" fill="#6BAEDE" transform="translate(0,0)"/>
<path d="M0 0 C2 1 2 1 2 1 Z " fill="#82C1E9" transform="translate(548,262)"/>
<path d="" fill="#82C1E9" transform="translate(0,0)"/>
<path d="" fill="#82C1E9" transform="translate(0,0)"/>
<path d="" fill="#82C1E9" transform="translate(0,0)"/>
<path d="" fill="#82C1E9" transform="translate(0,0)"/>
<path d="" fill="#82C1E9" transform="translate(0,0)"/>
<path d="" fill="#82C1E9" transform="translate(0,0)"/>
<path d="" fill="#82C1E9" transform="translate(0,0)"/>
<path d="" fill="#82C1E9" transform="translate(0,0)"/>
<path d="" fill="#82C1E9" transform="translate(0,0)"/>
<path d="" fill="#549CD3" transform="translate(0,0)"/>
<path d="" fill="#82C1E9" transform="translate(0,0)"/>
<path d="" fill="#82C1E9" transform="translate(0,0)"/>
<path d="" fill="#82C1E9" transform="translate(0,0)"/>
<path d="" fill="#82C1E9" transform="translate(0,0)"/>
<path d="" fill="#82C1E9" transform="translate(0,0)"/>
<path d="" fill="#82C1E9" transform="translate(0,0)"/>
<path d="" fill="#82C1E9" transform="translate(0,0)"/>
<path d="" fill="#82C1E9" transform="translate(0,0)"/>
<path d="" fill="#82C1E9" transform="translate(0,0)"/>
<path d="" fill="#549CD3" transform="translate(0,0)"/>
<path d="" fill="#0A4A83" transform="translate(0,0)"/>
<path d="" fill="#0A4A83" transform="translate(0,0)"/>
<path d="" fill="#82C1E9" transform="translate(0,0)"/>
<path d="" fill="#82C1E9" transform="translate(0,0)"/>
<path d="" fill="#82C1E9" transform="translate(0,0)"/>
<path d="" fill="#000204" transform="translate(0,0)"/>
<path d="" fill="#3278B6" transform="translate(0,0)"/>
<path d="" fill="#000204" transform="translate(0,0)"/>
<path d="" fill="#000204" transform="translate(0,0)"/>
<path d="" fill="#000204" transform="translate(0,0)"/>
<path d="" fill="#82C1E9" transform="translate(0,0)"/>
<path d="" fill="#82C1E9" transform="translate(0,0)"/>
<path d="" fill="#82C1E9" transform="translate(0,0)"/>
<path d="" fill="#000204" transform="translate(0,0)"/>
<path d="" fill="#0A4A83" transform="translate(0,0)"/>
<path d="" fill="#3278B6" transform="translate(0,0)"/>
<path d="" fill="#549CD3" transform="translate(0,0)"/>
<path d="" fill="#3278B6" transform="translate(0,0)"/>
<path d="" fill="#3278B6" transform="translate(0,0)"/>
<path d="" fill="#3278B6" transform="translate(0,0)"/>
<path d="" fill="#0A4A83" transform="translate(0,0)"/>
<path d="" fill="#82C1E9" transform="translate(0,0)"/>
<path d="" fill="#0A4A83" transform="translate(0,0)"/>
<path d="" fill="#0A4A83" transform="translate(0,0)"/>
</svg>
