<svg width="110" height="90" viewBox="0 0 110 90" fill="none" xmlns="http://www.w3.org/2000/svg">
<path fill-rule="evenodd" clip-rule="evenodd" d="M18.3659 13.1587C14.1397 18.0599 11.5789 24.7562 11.5789 31.7472C11.5789 35.8037 12.3445 39.685 13.6922 43.3807H38.8335L48.6408 27.4913L54.7693 47.038L62.2684 38.2513H81.0526V43.5273H65.1L52.336 58.4828L46.8855 41.0972L42.2192 48.6567H0V43.3807H7.63015C6.45622 39.6909 5.78947 35.8064 5.78947 31.7472C5.78947 23.6345 8.74567 15.7764 13.8137 9.89891C18.8957 4.00512 26.215 0 34.8272 0C44.9692 0 52.6816 5.17941 57.8947 12.4879C63.1076 5.17975 70.82 0 80.9623 0C89.5753 0 96.8947 4.00583 101.976 9.8997C107.044 15.7777 110 23.6359 110 31.7472C110 49.112 96.8472 63.6129 84.4036 73.5111C78.1104 78.5167 71.8312 82.479 67.1313 85.1882C64.7784 86.5447 62.8138 87.5915 61.4312 88.3019C60.7397 88.6572 60.1932 88.929 59.8157 89.1134C59.6272 89.2057 59.4808 89.2761 59.3794 89.3244L59.2622 89.3801L59.2295 89.3954L59.2199 89.4001L59.2168 89.4014C59.2168 89.4014 59.2147 89.4025 57.8947 87.0546C56.639 89.4315 56.6381 89.4312 56.6381 89.4312L56.6208 89.4236L56.5805 89.4057L56.4343 89.3402C56.3087 89.2835 56.1266 89.2004 55.8927 89.092C55.4249 88.8746 54.749 88.5541 53.8988 88.1339C52.1991 87.2934 49.7987 86.0519 46.9694 84.4346C41.3212 81.2056 33.9121 76.4506 26.9448 70.3668C23.2282 67.1218 19.6185 63.4824 16.4641 59.4771C15.5319 58.2934 15.8291 56.6451 17.1279 55.7957C18.4267 54.9463 20.2354 55.2172 21.1675 56.4009C24.0752 60.0928 27.4369 63.4897 30.9499 66.5572C37.5471 72.3173 44.6117 76.8584 50.0459 79.965C52.758 81.5153 55.0512 82.7011 56.6595 83.4962C57.116 83.722 57.5173 83.9162 57.8565 84.0779C58.0751 83.9682 58.3191 83.8442 58.5874 83.7062C59.8959 83.0338 61.7757 82.0326 64.0365 80.7295C68.5636 78.1197 74.5869 74.3164 80.5964 69.5361C92.7581 59.8625 104.211 46.7096 104.211 31.7472C104.211 24.7573 101.65 18.0609 97.4241 13.1595C93.212 8.27415 87.4598 5.27604 80.9623 5.27604C71.9805 5.27604 65.0141 10.6069 60.4931 18.9985L57.8947 23.8216L55.2964 18.9985C50.7751 10.6064 43.8087 5.27604 34.8272 5.27604C28.3302 5.27604 22.5781 8.27362 18.3659 13.1587ZM57.8947 87.0546L56.6381 89.4312L57.935 90L59.2168 89.4014L57.8947 87.0546Z" fill="black"/>
</svg>
